<?xml version="1.0" standalone="no"?><!-- Generator: Gravit.io --><svg xmlns="http://www.w3.org/2000/svg" xmlns:xlink="http://www.w3.org/1999/xlink" style="isolation:isolate" viewBox="0 0 1750 1750" width="1750" height="1750"><defs><clipPath id="_clipPath_m1eereTP5SSq8LEAdOX324jrcPha8yCd"><rect width="1750" height="1750"/></clipPath></defs><g clip-path="url(#_clipPath_m1eereTP5SSq8LEAdOX324jrcPha8yCd)"><clipPath id="_clipPath_YoX1mo505V55GzHTCjeepoDBIKHOp5l2"><path d=" M -239 -260 L -239 1963.811 L 1984.811 1963.811 L 1984.811 -260 L -239 -260 Z " fill="rgb(255,255,255)"/></clipPath><g clip-path="url(#_clipPath_YoX1mo505V55GzHTCjeepoDBIKHOp5l2)"><path d=" M 356.569 116.443 L 930.381 116.443 C 950.601 116.443 967.154 132.989 967.154 153.212 L 967.154 324.796 C 967.154 345.019 950.601 361.564 930.381 361.564 L 468.17 361.564 C 468.077 388.106 473.731 417.562 486.087 442.398 C 460.021 414.391 443.189 390.106 433.263 361.564 L 356.569 361.564 C 336.347 361.564 319.801 345.019 319.801 324.796 L 319.801 153.212 C 319.801 132.989 336.347 116.443 356.569 116.443 Z " fill-rule="evenodd" fill="rgb(192,57,76)"/></g><clipPath id="_clipPath_ShhcOAXvZ6J4Gxn1nCAwpWnP1QwpMvwn"><path d=" M -239 -260 L -239 1963.811 L 1984.811 1963.811 L 1984.811 -260 L -239 -260 Z " fill="rgb(255,255,255)"/></clipPath><g clip-path="url(#_clipPath_ShhcOAXvZ6J4Gxn1nCAwpWnP1QwpMvwn)"><path d=" M 1516.243 756.489 L 1123.664 756.489 C 1057.873 756.489 1004.046 810.317 1004.046 876.108 L 1004.046 876.108 C 1004.046 941.899 1057.873 995.726 1123.664 995.726 L 1451.619 995.726 C 1451.442 1021.144 1445.902 1049.102 1434.134 1072.755 C 1459.003 1046.032 1475.262 1022.781 1485.029 995.726 L 1516.243 995.726 C 1582.034 995.726 1635.861 941.899 1635.861 876.108 L 1635.861 876.108 C 1635.861 810.317 1582.034 756.489 1516.243 756.489 Z " fill-rule="evenodd" fill="rgb(228,211,97)"/></g><clipPath id="_clipPath_3Y9TI2iNE241XVlZZR31Axr5lCJcFhUm"><path d=" M -239 -260 L -239 1963.811 L 1984.811 1963.811 L 1984.811 -260 L -239 -260 Z " fill="rgb(255,255,255)"/></clipPath><g clip-path="url(#_clipPath_3Y9TI2iNE241XVlZZR31Axr5lCJcFhUm)"><path d=" M 739.067 322.82 C 883.996 322.82 1001.487 405.203 1001.487 506.826 C 1001.487 608.449 883.996 690.831 739.067 690.831 C 737.057 690.831 735.052 690.809 733.052 690.778 C 728.612 737.7 736.672 794.597 759.809 841.089 C 710.095 787.683 681.932 742.957 668.68 684.126 C 667.152 683.829 665.632 683.518 664.116 683.202 C 611.402 672.199 557.694 647.981 520.239 608.396 C 493.86 580.516 476.651 545.734 476.651 506.826 C 476.651 405.203 594.14 322.82 739.067 322.82 Z " fill-rule="evenodd" fill="rgb(223,164,72)"/></g><clipPath id="_clipPath_HlTqRJtcd2XBTNa8dWcTSp4OJXNwGIcs"><path d=" M -239 -260 L -239 1963.811 L 1984.811 1963.811 L 1984.811 -260 L -239 -260 Z " fill="rgb(255,255,255)"/></clipPath><g clip-path="url(#_clipPath_HlTqRJtcd2XBTNa8dWcTSp4OJXNwGIcs)"><path d=" M 900.148 361.564 L 577.991 361.564 C 622.454 337.288 678.348 322.82 739.067 322.82 C 799.789 322.82 855.685 337.288 900.148 361.564 Z " fill-rule="evenodd" fill="rgb(207,110,58)"/></g><clipPath id="_clipPath_PNDi23MHaqzEzQubuYzGDPmWppAGcJqN"><path d=" M -239 -260 L -239 1963.811 L 1984.811 1963.811 L 1984.811 -260 L -239 -260 Z " fill="rgb(255,255,255)"/></clipPath><g clip-path="url(#_clipPath_PNDi23MHaqzEzQubuYzGDPmWppAGcJqN)"><path d=" M 1037.525 906.076 C 969.469 906.076 914.288 961.256 914.288 1029.313 C 914.288 1089.896 958.005 1140.272 1015.618 1150.608 C 1015.029 1174.829 1009.557 1201.091 998.427 1223.459 C 1021.492 1198.669 1037.054 1176.908 1046.831 1152.206 C 1110.543 1147.45 1160.762 1094.25 1160.762 1029.313 C 1160.762 961.256 1105.591 906.076 1037.525 906.076 Z " fill-rule="evenodd" fill="rgb(87,118,134)"/></g><clipPath id="_clipPath_a4fzljXLwuwljMpMtkYSewD6RArYxt6n"><path d=" M -239 -260 L -239 1963.811 L 1984.811 1963.811 L 1984.811 -260 L -239 -260 Z " fill="rgb(255,255,255)"/></clipPath><g clip-path="url(#_clipPath_a4fzljXLwuwljMpMtkYSewD6RArYxt6n)"><path d=" M 1008.812 909.449 C 1023.335 959.148 1069.435 995.726 1123.664 995.726 L 1156.133 995.726 C 1141.512 943.987 1093.951 906.076 1037.525 906.076 C 1027.64 906.076 1018.02 907.253 1008.812 909.449 Z " fill-rule="evenodd" fill="rgb(111,130,103)"/></g><clipPath id="_clipPath_1xNInmD45QgTmr0gRg3Z0UqjwwRjUj9j"><path d=" M -239 -260 L -239 1963.811 L 1984.811 1963.811 L 1984.811 -260 L -239 -260 Z " fill="rgb(255,255,255)"/></clipPath><g clip-path="url(#_clipPath_1xNInmD45QgTmr0gRg3Z0UqjwwRjUj9j)"><path d=" M 915.602 221.071 L 1174.726 221.071 C 1205.263 221.071 1230.25 246.057 1230.25 276.597 L 1230.25 535.72 C 1230.25 566.26 1205.263 591.246 1174.726 591.246 L 1061.521 591.246 C 1060.492 632.792 1068.935 679.774 1088.499 719.092 C 1047.39 674.921 1021.482 636.879 1006.792 591.246 L 915.602 591.246 C 885.056 591.246 860.069 566.26 860.069 535.72 L 860.069 276.597 C 860.069 246.057 885.056 221.071 915.602 221.071 Z " fill-rule="evenodd" fill="rgb(92,131,99)"/></g><clipPath id="_clipPath_aUVrzj3QFX7C4QbYB1x2xSr5dSbvudic"><path d=" M -239 -260 L -239 1963.811 L 1984.811 1963.811 L 1984.811 -260 L -239 -260 Z " fill="rgb(255,255,255)"/></clipPath><g clip-path="url(#_clipPath_aUVrzj3QFX7C4QbYB1x2xSr5dSbvudic)"><path d=" M 972.283 591.246 L 915.602 591.246 C 885.056 591.246 860.069 566.26 860.069 535.72 L 860.069 343.52 C 944.1 374.195 1001.487 435.807 1001.487 506.826 C 1001.487 537.258 990.935 565.961 972.283 591.246 Z " fill-rule="evenodd" fill="rgb(114,124,68)"/></g><clipPath id="_clipPath_dsMyambJEUPkTS0dXT19xDiRaboRVeIx"><path d=" M -239 -260 L -239 1963.811 L 1984.811 1963.811 L 1984.811 -260 L -239 -260 Z " fill="rgb(255,255,255)"/></clipPath><g clip-path="url(#_clipPath_dsMyambJEUPkTS0dXT19xDiRaboRVeIx)"><path d=" M 967.154 221.071 L 967.154 324.796 C 967.154 345.019 950.601 361.564 930.381 361.564 L 860.069 361.564 L 860.069 276.597 C 860.069 246.057 885.056 221.071 915.602 221.071 L 967.154 221.071 Z " fill-rule="evenodd" fill="rgb(103,85,70)"/></g><clipPath id="_clipPath_hRtDYtqVCNofZNX2LHxnQk7FyBFTcePp"><path d=" M -239 -260 L -239 1963.811 L 1984.811 1963.811 L 1984.811 -260 L -239 -260 Z " fill="rgb(255,255,255)"/></clipPath><g clip-path="url(#_clipPath_hRtDYtqVCNofZNX2LHxnQk7FyBFTcePp)"><path d=" M 900.148 361.564 L 860.069 361.564 L 860.069 343.52 C 874.239 348.691 887.644 354.738 900.148 361.564 Z " fill-rule="evenodd" fill="rgb(120,108,62)"/></g><clipPath id="_clipPath_tuWPwFq4PNiP4lrk8RoHBlufPnMWFnwb"><path d=" M -239 -260 L -239 1963.811 L 1984.811 1963.811 L 1984.811 -260 L -239 -260 Z " fill="rgb(255,255,255)"/></clipPath><g clip-path="url(#_clipPath_tuWPwFq4PNiP4lrk8RoHBlufPnMWFnwb)"><path d=" M 449.793 458.567 C 347.262 458.567 264.146 516.848 264.146 588.741 C 264.146 660.634 347.262 718.914 449.793 718.914 C 451.215 718.914 452.633 718.899 454.049 718.877 C 457.191 752.077 451.487 792.322 435.12 825.222 C 470.289 787.429 490.213 755.793 499.588 714.171 C 500.668 713.96 501.744 713.74 502.817 713.517 C 540.109 705.734 578.104 688.6 604.602 660.596 C 623.264 640.873 635.438 616.266 635.438 588.741 C 635.438 516.848 552.321 458.567 449.793 458.567 Z " fill-rule="evenodd" fill="rgb(92,131,99)"/></g><clipPath id="_clipPath_GohvmoFfTZHs0XonbUNjKtdmxOnZ6Cyl"><path d=" M -239 -260 L -239 1963.811 L 1984.811 1963.811 L 1984.811 -260 L -239 -260 Z " fill="rgb(255,255,255)"/></clipPath><g clip-path="url(#_clipPath_GohvmoFfTZHs0XonbUNjKtdmxOnZ6Cyl)"><path d=" M 601.675 663.596 C 571.154 650.438 542.758 632.196 520.239 608.396 C 493.86 580.516 476.651 545.734 476.651 506.826 C 476.651 490.969 479.513 475.581 484.892 460.901 C 570.636 472.408 635.438 525.263 635.438 588.741 C 635.438 616.266 623.264 640.873 604.602 660.596 C 603.641 661.611 602.664 662.609 601.675 663.596 Z " fill-rule="evenodd" fill="rgb(114,124,68)"/></g><clipPath id="_clipPath_pGdRtrxlKtAGlfHPTMHosfCLmftdQXt5"><path d=" M -239 -260 L -239 1963.811 L 1984.811 1963.811 L 1984.811 -260 L -239 -260 Z " fill="rgb(255,255,255)"/></clipPath><g clip-path="url(#_clipPath_pGdRtrxlKtAGlfHPTMHosfCLmftdQXt5)"><path d=" M 1569.815 436.199 L 1086.42 436.199 C 1069.386 436.199 1055.451 450.136 1055.451 467.173 L 1055.451 611.719 C 1055.451 628.755 1069.386 642.693 1086.42 642.693 L 1475.801 642.693 C 1475.88 665.053 1471.114 689.866 1460.709 710.789 C 1482.666 687.196 1496.846 666.737 1505.211 642.693 L 1569.815 642.693 C 1586.849 642.693 1600.793 628.755 1600.793 611.719 L 1600.793 467.173 C 1600.793 450.136 1586.849 436.199 1569.815 436.199 Z " fill-rule="evenodd" fill="rgb(87,118,134)"/></g><clipPath id="_clipPath_1audFLI1yJlS6qFKzuhoOGUDfYth5Q2t"><path d=" M -239 -260 L -239 1963.811 L 1984.811 1963.811 L 1984.811 -260 L -239 -260 Z " fill="rgb(255,255,255)"/></clipPath><g clip-path="url(#_clipPath_1audFLI1yJlS6qFKzuhoOGUDfYth5Q2t)"><path d=" M 1230.25 436.199 L 1086.42 436.199 C 1069.386 436.199 1055.451 450.136 1055.451 467.173 L 1055.451 611.719 C 1055.451 619.702 1058.511 627.005 1063.522 632.512 C 1061.835 618.486 1061.188 604.586 1061.521 591.246 L 1174.726 591.246 C 1205.263 591.246 1230.25 566.26 1230.25 535.72 L 1230.25 436.199 Z " fill-rule="evenodd" fill="rgb(68,103,104)"/></g><clipPath id="_clipPath_6TKqjNz5NAzTVLH247CLTfvp1Ynjg0cp"><path d=" M -239 -260 L -239 1963.811 L 1984.811 1963.811 L 1984.811 -260 L -239 -260 Z " fill="rgb(255,255,255)"/></clipPath><g clip-path="url(#_clipPath_6TKqjNz5NAzTVLH247CLTfvp1Ynjg0cp)"><path d=" M 378.794 282.911 L 156.734 282.911 C 130.563 282.911 109.15 304.325 109.15 330.497 L 109.15 552.555 C 109.15 578.726 130.563 600.14 156.734 600.14 L 253.745 600.14 C 254.622 635.743 247.389 676.005 230.626 709.698 C 265.856 671.847 288.052 639.245 300.646 600.14 L 378.794 600.14 C 404.965 600.14 426.378 578.726 426.378 552.555 L 426.378 330.497 C 426.378 304.325 404.965 282.911 378.794 282.911 Z " fill-rule="evenodd" fill="rgb(228,211,97)"/></g><clipPath id="_clipPath_wxQok0OZZtg0y3n1hjERioUNF3DBQhlS"><path d=" M -239 -260 L -239 1963.811 L 1984.811 1963.811 L 1984.811 -260 L -239 -260 Z " fill="rgb(255,255,255)"/></clipPath><g clip-path="url(#_clipPath_wxQok0OZZtg0y3n1hjERioUNF3DBQhlS)"><path d=" M 426.378 459.595 C 334.901 467.667 264.146 522.409 264.146 588.741 C 264.146 608.322 270.324 626.887 281.368 643.546 C 289.385 629.602 295.743 615.363 300.646 600.14 L 378.794 600.14 C 404.965 600.14 426.378 578.726 426.378 552.555 L 426.378 459.595 Z " fill-rule="evenodd" fill="rgb(174,176,76)"/></g><clipPath id="_clipPath_ns8weMnARbNnQIth8qoZ8IFlzkkyYBVm"><path d=" M -239 -260 L -239 1963.811 L 1984.811 1963.811 L 1984.811 -260 L -239 -260 Z " fill="rgb(255,255,255)"/></clipPath><g clip-path="url(#_clipPath_ns8weMnARbNnQIth8qoZ8IFlzkkyYBVm)"><path d=" M 426.378 361.564 L 356.569 361.564 C 336.347 361.564 319.801 345.019 319.801 324.796 L 319.801 282.911 L 378.794 282.911 C 404.965 282.911 426.378 304.325 426.378 330.497 L 426.378 361.564 Z " fill-rule="evenodd" fill="rgb(204,148,66)"/></g><clipPath id="_clipPath_YRFLtcBxopcCmzVg48ffAmKgMXufZJDW"><path d=" M -239 -260 L -239 1963.811 L 1984.811 1963.811 L 1984.811 -260 L -239 -260 Z " fill="rgb(255,255,255)"/></clipPath><g clip-path="url(#_clipPath_YRFLtcBxopcCmzVg48ffAmKgMXufZJDW)"><path d=" M 571.165 42.316 C 514.398 42.316 468.38 88.334 468.38 145.102 C 468.38 195.632 504.842 237.646 552.892 246.267 C 552.405 266.463 547.834 288.367 538.551 307.024 C 557.793 286.349 570.769 268.201 578.926 247.598 C 632.069 243.632 673.952 199.258 673.952 145.102 C 673.952 88.334 627.932 42.316 571.165 42.316 Z " fill-rule="evenodd" fill="rgb(92,131,99)"/></g><clipPath id="_clipPath_0ibYBbGwoaSGF9iJd7YU9kYwBX5RrHWw"><path d=" M -239 -260 L -239 1963.811 L 1984.811 1963.811 L 1984.811 -260 L -239 -260 Z " fill="rgb(255,255,255)"/></clipPath><g clip-path="url(#_clipPath_0ibYBbGwoaSGF9iJd7YU9kYwBX5RrHWw)"><path d=" M 472.433 116.443 C 469.797 125.541 468.38 135.156 468.38 145.102 C 468.38 195.632 504.842 237.646 552.892 246.267 C 552.405 266.463 547.834 288.367 538.551 307.024 C 557.793 286.349 570.769 268.201 578.926 247.598 C 632.069 243.632 673.952 199.258 673.952 145.102 C 673.952 135.156 672.534 125.541 669.898 116.443 L 472.433 116.443 Z " fill-rule="evenodd" fill="rgb(103,85,70)"/></g><clipPath id="_clipPath_qHHY5Uxx9eq9RqithXGNyACxfxpJ2XnF"><path d=" M -239 -260 L -239 1963.811 L 1984.811 1963.811 L 1984.811 -260 L -239 -260 Z " fill="rgb(255,255,255)"/></clipPath><g clip-path="url(#_clipPath_qHHY5Uxx9eq9RqithXGNyACxfxpJ2XnF)"><path d=" M 705.684 6.112 L 989.895 6.112 C 1037.525 6.112 1076.496 45.082 1076.496 92.713 L 1076.496 92.713 C 1076.496 140.344 1037.525 179.314 989.895 179.314 L 752.464 179.314 C 752.591 197.712 756.602 217.951 765.124 235.08 C 747.119 215.734 735.349 198.9 728.279 179.314 L 705.684 179.314 C 658.054 179.314 619.083 140.344 619.083 92.713 L 619.083 92.713 C 619.083 45.082 658.054 6.112 705.684 6.112 Z " fill-rule="evenodd" fill="rgb(228,211,97)"/></g><clipPath id="_clipPath_63xZgl6N3qsCuimrNYrQYEhQs9OOsAt4"><path d=" M -239 -260 L -239 1963.811 L 1984.811 1963.811 L 1984.811 -260 L -239 -260 Z " fill="rgb(255,255,255)"/></clipPath><g clip-path="url(#_clipPath_63xZgl6N3qsCuimrNYrQYEhQs9OOsAt4)"><path d=" M 967.154 179.314 L 752.464 179.314 C 752.591 197.712 756.602 217.951 765.124 235.08 C 747.119 215.734 735.349 198.9 728.279 179.314 L 705.684 179.314 C 666.274 179.314 632.793 152.634 622.41 116.443 L 930.381 116.443 C 950.601 116.443 967.154 132.989 967.154 153.212 L 967.154 179.314 Z " fill-rule="evenodd" fill="rgb(211,145,68)"/></g><clipPath id="_clipPath_L9AN7RXYicM3bHXZ107DUouHfVZomNZa"><path d=" M -239 -260 L -239 1963.811 L 1984.811 1963.811 L 1984.811 -260 L -239 -260 Z " fill="rgb(255,255,255)"/></clipPath><g clip-path="url(#_clipPath_L9AN7RXYicM3bHXZ107DUouHfVZomNZa)"><path d=" M 670.454 171.776 C 640.252 158.213 619.083 127.817 619.083 92.713 L 619.083 92.713 C 619.083 80.507 621.648 68.873 626.256 58.315 C 654.927 76.554 673.952 108.605 673.952 145.102 C 673.952 154.328 672.734 163.269 670.454 171.776 Z " fill-rule="evenodd" fill="rgb(174,176,76)"/></g><clipPath id="_clipPath_U4cdR4uYKcCdeWnORNhb2Icmkl9MiJfA"><path d=" M -239 -260 L -239 1963.811 L 1984.811 1963.811 L 1984.811 -260 L -239 -260 Z " fill="rgb(255,255,255)"/></clipPath><g clip-path="url(#_clipPath_U4cdR4uYKcCdeWnORNhb2Icmkl9MiJfA)"><path d=" M 670.454 171.776 C 647.325 161.389 629.494 141.13 622.41 116.443 L 669.9 116.443 C 672.536 125.541 673.952 135.156 673.952 145.102 C 673.952 154.328 672.734 163.269 670.454 171.776 Z " fill-rule="evenodd" fill="rgb(173,151,68)"/></g><clipPath id="_clipPath_6I9YH3zWVJ2kMZMD6Ynnj7EqI4ZU7mNI"><path d=" M -239 -260 L -239 1963.811 L 1984.811 1963.811 L 1984.811 -260 L -239 -260 Z " fill="rgb(255,255,255)"/></clipPath><g clip-path="url(#_clipPath_6I9YH3zWVJ2kMZMD6Ynnj7EqI4ZU7mNI)"><path d=" M 104.121 461.871 C 158.731 461.871 203.001 506.14 203.001 560.749 C 203.001 609.359 167.923 649.774 121.701 658.069 C 122.169 677.497 126.566 698.568 135.496 716.516 C 116.984 696.627 104.504 679.168 96.656 659.348 C 45.534 655.532 5.242 612.847 5.242 560.749 C 5.242 506.14 49.512 461.871 104.121 461.871 Z " fill-rule="evenodd" fill="rgb(192,57,76)"/></g><clipPath id="_clipPath_MpFQ5tiqSn3bvXsv17tDQZHybgeBpI7y"><path d=" M -239 -260 L -239 1963.811 L 1984.811 1963.811 L 1984.811 -260 L -239 -260 Z " fill="rgb(255,255,255)"/></clipPath><g clip-path="url(#_clipPath_MpFQ5tiqSn3bvXsv17tDQZHybgeBpI7y)"><path d=" M 109.15 461.996 C 161.423 464.615 203.001 507.826 203.001 560.749 C 203.001 574.751 200.085 588.069 194.837 600.14 L 156.734 600.14 C 130.563 600.14 109.15 578.726 109.15 552.555 L 109.15 461.996 Z " fill-rule="evenodd" fill="rgb(196,78,60)"/></g><clipPath id="_clipPath_T8VqAwEv1LEVwUCyylPuw2sayHZ3aFA9"><path d=" M -239 -260 L -239 1963.811 L 1984.811 1963.811 L 1984.811 -260 L -239 -260 Z " fill="rgb(255,255,255)"/></clipPath><g clip-path="url(#_clipPath_T8VqAwEv1LEVwUCyylPuw2sayHZ3aFA9)"><path d=" M 1527.069 565.194 C 1418.807 565.194 1331.03 626.737 1331.03 702.653 C 1331.03 778.573 1418.807 840.118 1527.069 840.118 C 1528.569 840.118 1530.07 840.099 1531.56 840.069 C 1534.885 875.127 1528.864 917.628 1511.575 952.362 C 1548.712 912.47 1569.756 879.049 1579.651 835.107 C 1580.798 834.882 1581.926 834.646 1583.063 834.411 C 1622.446 826.193 1662.564 808.1 1690.541 778.534 C 1710.252 757.705 1723.108 731.719 1723.108 702.653 C 1723.108 626.737 1635.341 565.194 1527.069 565.194 Z " fill-rule="evenodd" fill="rgb(223,164,72)"/></g><clipPath id="_clipPath_gYbuCQcNySBQvDwkOv1cbCekQ0LzB6fW"><path d=" M -239 -260 L -239 1963.811 L 1984.811 1963.811 L 1984.811 -260 L -239 -260 Z " fill="rgb(255,255,255)"/></clipPath><g clip-path="url(#_clipPath_gYbuCQcNySBQvDwkOv1cbCekQ0LzB6fW)"><path d=" M 1516.243 756.489 L 1346.651 756.489 C 1376.522 805.649 1446.049 840.118 1527.069 840.118 C 1528.569 840.118 1530.07 840.099 1531.56 840.069 C 1534.885 875.127 1528.864 917.628 1511.575 952.362 C 1548.712 912.47 1569.756 879.049 1579.651 835.107 C 1580.798 834.882 1581.926 834.646 1583.063 834.411 C 1596.488 831.616 1609.992 827.664 1623.083 822.506 C 1603.343 783.437 1562.784 756.489 1516.243 756.489 Z " fill-rule="evenodd" fill="rgb(204,148,66)"/></g><clipPath id="_clipPath_V7itVCd0epEnl2mJiMPjDHbOfhuUL85d"><path d=" M -239 -260 L -239 1963.811 L 1984.811 1963.811 L 1984.811 -260 L -239 -260 Z " fill="rgb(255,255,255)"/></clipPath><g clip-path="url(#_clipPath_V7itVCd0epEnl2mJiMPjDHbOfhuUL85d)"><path d=" M 1350.623 642.693 L 1475.801 642.693 C 1475.88 665.053 1471.114 689.866 1460.709 710.789 C 1482.666 687.196 1496.846 666.737 1505.211 642.693 L 1569.815 642.693 C 1586.849 642.693 1600.793 628.755 1600.793 611.719 L 1600.793 575.255 C 1578.033 568.773 1553.144 565.194 1527.069 565.194 C 1449.461 565.194 1382.386 596.819 1350.623 642.693 Z " fill-rule="evenodd" fill="rgb(168,133,67)"/></g><clipPath id="_clipPath_ZvL0q13hReznsp0uP9njklTWZ5qMWz6p"><path d=" M -239 -260 L -239 1963.811 L 1984.811 1963.811 L 1984.811 -260 L -239 -260 Z " fill="rgb(255,255,255)"/></clipPath><g clip-path="url(#_clipPath_ZvL0q13hReznsp0uP9njklTWZ5qMWz6p)"><path d=" M 789.463 911.273 L 594.163 911.273 C 571.147 911.273 552.314 930.101 552.314 953.117 L 552.314 1148.411 C 552.314 1171.436 571.147 1190.265 594.163 1190.265 L 679.482 1190.265 C 680.252 1221.576 673.892 1256.987 659.149 1286.622 C 690.133 1253.329 709.655 1224.655 720.73 1190.265 L 789.463 1190.265 C 812.479 1190.265 831.307 1171.436 831.307 1148.411 L 831.307 953.117 C 831.307 930.101 812.479 911.273 789.463 911.273 Z " fill-rule="evenodd" fill="rgb(192,57,76)"/></g><clipPath id="_clipPath_j0COiyWIePrAPL9IoVxJfdu2nPZC0fNH"><path d=" M -239 -260 L -239 1963.811 L 1984.811 1963.811 L 1984.811 -260 L -239 -260 Z " fill="rgb(255,255,255)"/></clipPath><g clip-path="url(#_clipPath_j0COiyWIePrAPL9IoVxJfdu2nPZC0fNH)"><path d=" M 753.915 1122.512 C 812.184 1122.512 859.431 1169.75 859.431 1228.029 C 859.431 1279.895 822.001 1323.023 772.674 1331.878 C 773.175 1352.609 777.862 1375.095 787.394 1394.247 C 767.644 1373.026 754.327 1354.394 745.952 1333.241 C 691.396 1329.172 648.4 1283.621 648.4 1228.029 C 648.4 1169.75 695.641 1122.512 753.915 1122.512 Z " fill-rule="evenodd" fill="rgb(87,118,134)"/></g><clipPath id="_clipPath_O35W2MEMyOFG3SvkVClT82yLz9KObqE0"><path d=" M -239 -260 L -239 1963.811 L 1984.811 1963.811 L 1984.811 -260 L -239 -260 Z " fill="rgb(255,255,255)"/></clipPath><g clip-path="url(#_clipPath_O35W2MEMyOFG3SvkVClT82yLz9KObqE0)"><path d=" M 655.367 1190.265 L 679.482 1190.265 C 680.197 1219.34 674.763 1251.947 662.177 1280.189 C 662.545 1280.836 662.921 1281.474 663.302 1282.111 C 691.889 1250.711 710.158 1223.096 720.73 1190.265 L 789.463 1190.265 C 810.017 1190.265 827.227 1175.241 830.679 1155.638 C 811.439 1135.241 784.168 1122.512 753.915 1122.512 C 708.949 1122.512 670.559 1150.647 655.367 1190.265 Z " fill-rule="evenodd" fill="rgb(99,76,95)"/></g><clipPath id="_clipPath_OazS2U7uoaBBHKhEan4k0uLS2dzRnaGx"><path d=" M -239 -260 L -239 1963.811 L 1984.811 1963.811 L 1984.811 -260 L -239 -260 Z " fill="rgb(255,255,255)"/></clipPath><g clip-path="url(#_clipPath_OazS2U7uoaBBHKhEan4k0uLS2dzRnaGx)"><path d=" M 772.194 1296.154 C 729.784 1296.154 695.407 1320.258 695.407 1349.991 C 695.407 1379.724 729.784 1403.828 772.194 1403.828 C 772.782 1403.828 773.361 1403.828 773.949 1403.818 C 775.254 1417.547 772.89 1434.188 766.124 1447.799 C 780.667 1432.168 788.904 1419.086 792.787 1401.866 C 793.229 1401.788 793.68 1401.69 794.121 1401.602 C 809.546 1398.385 825.256 1391.295 836.22 1379.714 C 843.937 1371.555 848.968 1361.376 848.968 1349.991 C 848.968 1320.258 814.597 1296.154 772.194 1296.154 Z " fill-rule="evenodd" fill="rgb(92,131,99)"/></g><clipPath id="_clipPath_7gVM2SuuOhbV5j7YuDka08o5y1p9TnrC"><path d=" M -239 -260 L -239 1963.811 L 1984.811 1963.811 L 1984.811 -260 L -239 -260 Z " fill="rgb(255,255,255)"/></clipPath><g clip-path="url(#_clipPath_7gVM2SuuOhbV5j7YuDka08o5y1p9TnrC)"><path d=" M 772.194 1296.154 C 744.265 1296.154 719.817 1306.607 706.38 1322.248 C 718.429 1328.338 731.798 1332.192 745.952 1333.241 C 754.327 1354.394 767.644 1373.026 787.394 1394.247 C 777.862 1375.095 773.175 1352.609 772.674 1331.878 C 791.14 1328.564 807.938 1320.444 821.726 1308.863 C 808.36 1300.939 791.071 1296.154 772.194 1296.154 Z " fill-rule="evenodd" fill="rgb(70,109,89)"/></g><clipPath id="_clipPath_UxZP2sWwYGSfsxSkBmzywc8COIy6KVsR"><path d=" M -239 -260 L -239 1963.811 L 1984.811 1963.811 L 1984.811 -260 L -239 -260 Z " fill="rgb(255,255,255)"/></clipPath><g clip-path="url(#_clipPath_UxZP2sWwYGSfsxSkBmzywc8COIy6KVsR)"><path d=" M 760.22 1370.27 L 836.534 1370.27 C 845.536 1370.27 852.891 1377.635 852.891 1386.627 L 852.891 1462.95 C 852.891 1471.943 845.536 1479.298 836.534 1479.298 L 803.202 1479.298 C 802.898 1491.536 805.379 1505.373 811.145 1516.954 C 799.034 1503.941 791.405 1492.742 787.08 1479.298 L 760.22 1479.298 C 751.228 1479.298 743.863 1471.943 743.863 1462.95 L 743.863 1386.627 C 743.863 1377.635 751.228 1370.27 760.22 1370.27 Z " fill-rule="evenodd" fill="rgb(223,164,72)"/></g><clipPath id="_clipPath_8JEWwgXzXFldlBeODBYKWkZxko1cOkTS"><path d=" M -239 -260 L -239 1963.811 L 1984.811 1963.811 L 1984.811 -260 L -239 -260 Z " fill="rgb(255,255,255)"/></clipPath><g clip-path="url(#_clipPath_8JEWwgXzXFldlBeODBYKWkZxko1cOkTS)"><path d=" M 743.863 1400.052 C 752.63 1402.484 762.182 1403.828 772.194 1403.828 C 772.782 1403.828 773.361 1403.828 773.949 1403.818 C 775.254 1417.547 772.89 1434.188 766.124 1447.799 C 780.667 1432.168 788.904 1419.086 792.787 1401.866 C 793.229 1401.788 793.68 1401.69 794.121 1401.602 C 809.546 1398.385 825.256 1391.295 836.22 1379.714 C 838.642 1377.154 840.799 1374.389 842.623 1371.457 C 840.741 1370.692 838.681 1370.27 836.534 1370.27 L 760.22 1370.27 C 751.228 1370.27 743.863 1377.635 743.863 1386.627 L 743.863 1400.052 Z " fill-rule="evenodd" fill="rgb(170,139,63)"/></g><clipPath id="_clipPath_JY3cS0d2sECUFdYGdiKlOEM22UIgMV7R"><path d=" M -239 -260 L -239 1963.811 L 1984.811 1963.811 L 1984.811 -260 L -239 -260 Z " fill="rgb(255,255,255)"/></clipPath><g clip-path="url(#_clipPath_JY3cS0d2sECUFdYGdiKlOEM22UIgMV7R)"><path d=" M 767.114 1370.27 C 772.959 1378.076 779.686 1385.961 787.394 1394.247 C 783.628 1386.676 780.618 1378.576 778.323 1370.27 L 767.114 1370.27 Z " fill-rule="evenodd" fill="rgb(152,130,63)"/></g><clipPath id="_clipPath_Ush4q89fkT5o2TmO8YSQTEm39Qkit28E"><path d=" M -239 -260 L -239 1963.811 L 1984.811 1963.811 L 1984.811 -260 L -239 -260 Z " fill="rgb(255,255,255)"/></clipPath><g clip-path="url(#_clipPath_Ush4q89fkT5o2TmO8YSQTEm39Qkit28E)"><path d=" M 822.295 1453.968 C 798.171 1453.968 778.607 1473.531 778.607 1497.655 C 778.607 1519.141 794.101 1536.998 814.528 1540.656 C 814.322 1549.246 812.38 1558.553 808.438 1566.486 C 816.617 1557.7 822.128 1549.982 825.599 1541.225 C 848.184 1539.538 865.992 1520.68 865.992 1497.655 C 865.992 1473.531 846.428 1453.968 822.295 1453.968 Z " fill-rule="evenodd" fill="rgb(192,57,76)"/></g><clipPath id="_clipPath_AKpEBD1A1TOgeV9C1ImwPOIwNv5hDthM"><path d=" M -239 -260 L -239 1963.811 L 1984.811 1963.811 L 1984.811 -260 L -239 -260 Z " fill="rgb(255,255,255)"/></clipPath><g clip-path="url(#_clipPath_AKpEBD1A1TOgeV9C1ImwPOIwNv5hDthM)"><path d=" M 852.577 1466.157 C 851.067 1473.629 844.438 1479.298 836.534 1479.298 L 803.202 1479.298 C 802.898 1491.536 805.379 1505.373 811.145 1516.954 C 799.034 1503.941 791.405 1492.742 787.08 1479.298 L 782.638 1479.298 C 789.581 1464.343 804.722 1453.968 822.295 1453.968 C 834.053 1453.968 844.722 1458.606 852.577 1466.157 Z " fill-rule="evenodd" fill="rgb(196,78,60)"/></g><clipPath id="_clipPath_vVrGlMa3sVh1QZeyibadnmikxRE8yBaC"><path d=" M -239 -260 L -239 1963.811 L 1984.811 1963.811 L 1984.811 -260 L -239 -260 Z " fill="rgb(255,255,255)"/></clipPath><g clip-path="url(#_clipPath_vVrGlMa3sVh1QZeyibadnmikxRE8yBaC)"><path d=" M 841.525 1526.388 C 862.462 1526.388 879.427 1538.293 879.427 1552.973 C 879.427 1567.643 862.462 1579.548 841.525 1579.548 C 841.231 1579.548 840.946 1579.538 840.652 1579.538 C 840.015 1586.315 841.182 1594.532 844.516 1601.25 C 837.338 1593.532 833.268 1587.07 831.356 1578.577 C 831.14 1578.528 830.915 1578.489 830.699 1578.44 C 823.089 1576.851 815.332 1573.35 809.919 1567.633 C 806.114 1563.613 803.623 1558.582 803.623 1552.973 C 803.623 1538.293 820.588 1526.388 841.525 1526.388 Z " fill-rule="evenodd" fill="rgb(228,211,97)"/></g><clipPath id="_clipPath_fcWiXgN7O2nNbuDm2DYWLxrjy3NagD8f"><path d=" M -239 -260 L -239 1963.811 L 1984.811 1963.811 L 1984.811 -260 L -239 -260 Z " fill="rgb(255,255,255)"/></clipPath><g clip-path="url(#_clipPath_fcWiXgN7O2nNbuDm2DYWLxrjy3NagD8f)"><path d=" M 841.525 1526.388 C 845.85 1526.388 850.008 1526.908 853.891 1527.839 C 846.644 1535.419 836.7 1540.401 825.599 1541.225 C 822.167 1549.894 816.725 1557.543 808.674 1566.231 L 808.605 1566.143 C 812.439 1558.288 814.322 1549.119 814.528 1540.656 C 812.645 1540.323 810.811 1539.862 809.017 1539.293 C 815.646 1531.566 827.727 1526.388 841.525 1526.388 Z " fill-rule="evenodd" fill="rgb(196,78,60)"/></g><clipPath id="_clipPath_E3RwdvBUqZiosmWQHDEnRwyvxLfF6ZuA"><path d=" M -239 -260 L -239 1963.811 L 1984.811 1963.811 L 1984.811 -260 L -239 -260 Z " fill="rgb(255,255,255)"/></clipPath><g clip-path="url(#_clipPath_E3RwdvBUqZiosmWQHDEnRwyvxLfF6ZuA)"><path d=" M 875.181 1557.033 L 840.937 1557.033 C 836.906 1557.033 833.601 1560.328 833.601 1564.368 L 833.601 1598.612 C 833.601 1602.652 836.906 1605.947 840.937 1605.947 L 855.901 1605.947 C 856.038 1611.438 854.921 1617.646 852.332 1622.853 C 857.764 1617.008 861.187 1611.988 863.128 1605.947 L 875.181 1605.947 C 879.221 1605.947 882.525 1602.652 882.525 1598.612 L 882.525 1564.368 C 882.525 1560.328 879.221 1557.033 875.181 1557.033 Z " fill-rule="evenodd" fill="rgb(87,118,134)"/></g><clipPath id="_clipPath_wAJgyusAi4n0JxyKvKbcqy6eNA5Pt79Q"><path d=" M -239 -260 L -239 1963.811 L 1984.811 1963.811 L 1984.811 -260 L -239 -260 Z " fill="rgb(255,255,255)"/></clipPath><g clip-path="url(#_clipPath_wAJgyusAi4n0JxyKvKbcqy6eNA5Pt79Q)"><path d=" M 875.181 1557.033 L 840.937 1557.033 C 836.906 1557.033 833.601 1560.328 833.601 1564.368 L 833.601 1585.559 C 835.906 1590.943 839.426 1595.778 844.516 1601.25 C 841.182 1594.532 840.015 1586.315 840.652 1579.538 C 840.946 1579.538 841.231 1579.548 841.525 1579.548 C 860.02 1579.548 875.416 1570.252 878.75 1557.964 C 877.691 1557.366 876.475 1557.033 875.181 1557.033 Z " fill-rule="evenodd" fill="rgb(111,130,103)"/></g><clipPath id="_clipPath_TP5EPD89eM0hejtCKh0pQWbk5shT0liG"><path d=" M -239 -260 L -239 1963.811 L 1984.811 1963.811 L 1984.811 -260 L -239 -260 Z " fill="rgb(255,255,255)"/></clipPath><g clip-path="url(#_clipPath_TP5EPD89eM0hejtCKh0pQWbk5shT0liG)"><path d=" M 873.317 1589.041 C 885.163 1589.041 894.764 1598.651 894.764 1610.497 C 894.764 1621.039 887.154 1629.806 877.132 1631.6 C 877.23 1635.817 878.181 1640.387 880.123 1644.28 C 876.102 1639.965 873.396 1636.18 871.699 1631.885 C 860.608 1631.051 851.871 1621.794 851.871 1610.497 C 851.871 1598.651 861.471 1589.041 873.317 1589.041 Z " fill-rule="evenodd" fill="rgb(192,57,76)"/></g><clipPath id="_clipPath_6AMY3BXFsCwIKfv6RWWYtOvJihgoH9du"><path d=" M -239 -260 L -239 1963.811 L 1984.811 1963.811 L 1984.811 -260 L -239 -260 Z " fill="rgb(255,255,255)"/></clipPath><g clip-path="url(#_clipPath_6AMY3BXFsCwIKfv6RWWYtOvJihgoH9du)"><path d=" M 873.317 1589.041 C 876.612 1589.041 879.731 1589.786 882.525 1591.12 L 882.525 1598.612 C 882.525 1602.652 879.221 1605.947 875.181 1605.947 L 863.128 1605.947 C 861.452 1611.183 858.647 1615.665 854.381 1620.578 C 854.175 1620.186 853.979 1619.793 853.793 1619.391 C 855.342 1615.028 856.009 1610.271 855.901 1605.947 L 852.351 1605.947 C 854.43 1596.288 863.03 1589.041 873.317 1589.041 Z " fill-rule="evenodd" fill="rgb(99,76,95)"/></g><clipPath id="_clipPath_CE4M4qW6QjlukZr5qG0L591vqgRqwEJA"><path d=" M -239 -260 L -239 1963.811 L 1984.811 1963.811 L 1984.811 -260 L -239 -260 Z " fill="rgb(255,255,255)"/></clipPath><g clip-path="url(#_clipPath_CE4M4qW6QjlukZr5qG0L591vqgRqwEJA)"><path d=" M 897.441 1638.347 C 888.115 1638.347 880.564 1643.643 880.564 1650.183 C 880.564 1656.714 888.115 1662.01 897.441 1662.01 C 897.568 1662.01 897.696 1662.01 897.823 1662.01 C 898.108 1665.03 897.588 1668.688 896.107 1671.679 C 899.304 1668.237 901.109 1665.364 901.962 1661.588 C 902.06 1661.559 902.158 1661.539 902.256 1661.52 C 905.649 1660.814 909.101 1659.254 911.503 1656.714 C 913.2 1654.92 914.308 1652.684 914.308 1650.183 C 914.308 1643.643 906.757 1638.347 897.441 1638.347 Z " fill-rule="evenodd" fill="rgb(92,131,99)"/></g><clipPath id="_clipPath_gSRv0mlWmiPWyNV2LC82cGtXHGCcsp9Q"><path d=" M -239 -260 L -239 1963.811 L 1984.811 1963.811 L 1984.811 -260 L -239 -260 Z " fill="rgb(255,255,255)"/></clipPath><g clip-path="url(#_clipPath_gSRv0mlWmiPWyNV2LC82cGtXHGCcsp9Q)"><path d=" M 909.326 1670.993 L 920.81 1670.993 C 922.163 1670.993 923.261 1672.101 923.261 1673.454 L 923.261 1684.937 C 923.261 1686.29 922.163 1687.399 920.81 1687.399 L 915.789 1687.399 C 915.74 1689.232 916.122 1691.321 916.985 1693.057 C 915.161 1691.105 914.014 1689.419 913.367 1687.399 L 909.326 1687.399 C 907.973 1687.399 906.865 1686.29 906.865 1684.937 L 906.865 1673.454 C 906.865 1672.101 907.973 1670.993 909.326 1670.993 Z " fill-rule="evenodd" fill="rgb(223,164,72)"/></g><clipPath id="_clipPath_Y1OmkV7aR8NcndJLpSVYM8z4v3wEpUs2"><path d=" M -239 -260 L -239 1963.811 L 1984.811 1963.811 L 1984.811 -260 L -239 -260 Z " fill="rgb(255,255,255)"/></clipPath><g clip-path="url(#_clipPath_Y1OmkV7aR8NcndJLpSVYM8z4v3wEpUs2)"><path d=" M 1658.151 495.335 C 1610.521 495.335 1571.904 533.951 1571.904 581.589 C 1571.904 623.991 1602.5 659.246 1642.823 666.481 C 1642.412 683.428 1638.577 701.808 1630.791 717.465 C 1646.932 700.116 1657.817 684.886 1664.662 667.598 C 1709.262 664.268 1744.408 627.034 1744.408 581.589 C 1744.408 533.951 1705.79 495.335 1658.151 495.335 Z " fill-rule="evenodd" fill="rgb(92,131,99)"/></g><clipPath id="_clipPath_KxYI8liF4FzEp2poA8KxXVQMpX9lgdAf"><path d=" M -239 -260 L -239 1963.811 L 1984.811 1963.811 L 1984.811 -260 L -239 -260 Z " fill="rgb(255,255,255)"/></clipPath><g clip-path="url(#_clipPath_KxYI8liF4FzEp2poA8KxXVQMpX9lgdAf)"><path d=" M 1590.33 634.873 C 1596.733 629.188 1600.793 620.905 1600.793 611.719 L 1600.793 517.183 C 1583.063 532.981 1571.904 555.979 1571.904 581.589 C 1571.904 601.702 1578.788 620.203 1590.33 634.873 Z " fill-rule="evenodd" fill="rgb(70,109,89)"/></g><path d=" M -239 -260 L -239 1963.811 L 1984.811 1963.811 L 1984.811 -260 L -239 -260 Z " fill="none"/><path d=" M 1572.825 568.966 C 1572.218 573.088 1571.904 577.3 1571.904 581.589 C 1571.904 623.991 1602.5 659.246 1642.823 666.481 C 1642.412 683.428 1638.577 701.808 1630.791 717.465 C 1646.932 700.116 1657.817 684.886 1664.662 667.598 C 1681.157 666.367 1696.347 660.497 1708.958 651.296 C 1685.491 610.479 1634.89 579.374 1572.825 568.966 Z " fill-rule="evenodd" fill="rgb(114,124,68)"/><clipPath id="_clipPath_S4fvsGlEETqah2IQqUBWFPwjpO5xJb0c"><path d=" M -239 -260 L -239 1963.811 L 1984.811 1963.811 L 1984.811 -260 L -239 -260 Z " fill="rgb(255,255,255)"/></clipPath><g clip-path="url(#_clipPath_S4fvsGlEETqah2IQqUBWFPwjpO5xJb0c)"><path d=" M 184.512 634.71 L 58.207 634.71 C 43.321 634.71 31.141 646.89 31.141 661.777 L 31.141 788.086 C 31.141 802.972 43.321 815.151 58.207 815.151 L 113.385 815.151 C 113.884 835.401 109.77 858.299 100.236 877.461 C 120.273 855.936 132.899 837.392 140.061 815.151 L 184.512 815.151 C 199.398 815.151 211.577 802.972 211.577 788.086 L 211.577 661.777 C 211.577 646.89 199.398 634.71 184.512 634.71 Z " fill-rule="evenodd" fill="rgb(223,164,72)"/></g><clipPath id="_clipPath_zDF2Fx1AAw8s7eIrB6gKtwGQvqHj343A"><path d=" M -239 -260 L -239 1963.811 L 1984.811 1963.811 L 1984.811 -260 L -239 -260 Z " fill="rgb(255,255,255)"/></clipPath><g clip-path="url(#_clipPath_zDF2Fx1AAw8s7eIrB6gKtwGQvqHj343A)"><path d=" M 169.741 634.71 L 58.207 634.71 C 52.859 634.71 47.862 636.282 43.653 638.985 C 58.527 650.497 76.771 657.865 96.656 659.348 C 104.504 679.168 116.984 696.627 135.496 716.516 C 126.566 698.568 122.169 677.497 121.701 658.069 C 139.941 654.796 156.442 646.518 169.741 634.71 Z " fill-rule="evenodd" fill="rgb(207,110,58)"/></g><clipPath id="_clipPath_LDy48yj8bvbZ9X6GKtKMqoMXcmkhzLsg"><path d=" M -239 -260 L -239 1963.811 L 1984.811 1963.811 L 1984.811 -260 L -239 -260 Z " fill="rgb(255,255,255)"/></clipPath><g clip-path="url(#_clipPath_LDy48yj8bvbZ9X6GKtKMqoMXcmkhzLsg)"><path d=" M 214.64 725.06 L 603.295 725.06 C 668.429 725.06 721.72 778.358 721.72 843.492 L 721.72 843.492 C 721.72 908.625 668.429 961.913 603.295 961.913 L 278.615 961.913 C 278.787 987.076 284.272 1014.75 295.926 1038.168 C 271.303 1011.72 255.207 988.695 245.538 961.913 L 214.64 961.913 C 149.506 961.913 96.216 908.625 96.216 843.492 L 96.216 843.492 C 96.216 778.358 149.506 725.06 214.64 725.06 Z " fill-rule="evenodd" fill="rgb(87,118,134)"/></g><clipPath id="_clipPath_LsJAFbGEHQOUtU8sTex1WdSEUhR7sgls"><path d=" M -239 -260 L -239 1963.811 L 1984.811 1963.811 L 1984.811 -260 L -239 -260 Z " fill="rgb(255,255,255)"/></clipPath><g clip-path="url(#_clipPath_LsJAFbGEHQOUtU8sTex1WdSEUhR7sgls)"><path d=" M 700.25 911.273 C 678.779 941.83 643.271 961.913 603.295 961.913 L 552.314 961.913 L 552.314 953.117 C 552.314 930.101 571.147 911.273 594.163 911.273 L 700.25 911.273 Z " fill-rule="evenodd" fill="rgb(99,76,95)"/></g><clipPath id="_clipPath_7oulhfCCCxUBH2OfiglnaGndfTeFYjrw"><path d=" M -239 -260 L -239 1963.811 L 1984.811 1963.811 L 1984.811 -260 L -239 -260 Z " fill="rgb(255,255,255)"/></clipPath><g clip-path="url(#_clipPath_7oulhfCCCxUBH2OfiglnaGndfTeFYjrw)"><path d=" M 99.676 815.151 L 113.385 815.151 C 113.873 834.96 109.945 857.309 100.848 876.206 C 100.892 876.363 100.938 876.51 100.982 876.657 C 120.588 855.465 132.988 837.108 140.061 815.151 L 184.512 815.151 C 199.398 815.151 211.577 802.972 211.577 788.086 L 211.577 725.109 C 157.547 726.492 112.226 764.54 99.676 815.151 Z " fill-rule="evenodd" fill="rgb(109,114,94)"/></g><clipPath id="_clipPath_0mXbTOgieJgSkZxvteGThHAWvrmSURNE"><path d=" M -239 -260 L -239 1963.811 L 1984.811 1963.811 L 1984.811 -260 L -239 -260 Z " fill="rgb(255,255,255)"/></clipPath><g clip-path="url(#_clipPath_0mXbTOgieJgSkZxvteGThHAWvrmSURNE)"><path d=" M 454.526 725.06 L 496.826 725.06 C 486.541 761.471 467.157 790.792 435.12 825.222 C 450.482 794.342 456.449 756.99 454.526 725.06 Z " fill-rule="evenodd" fill="rgb(68,103,104)"/></g><clipPath id="_clipPath_CdDWHU9oGcMpVe1gZ1HObFsUHSEa6Omk"><path d=" M -239 -260 L -239 1963.811 L 1984.811 1963.811 L 1984.811 -260 L -239 -260 Z " fill="rgb(255,255,255)"/></clipPath><g clip-path="url(#_clipPath_CdDWHU9oGcMpVe1gZ1HObFsUHSEa6Omk)"><path d=" M 1113.936 904.468 L 1256.286 904.468 C 1273.064 904.468 1286.793 918.197 1286.793 934.965 L 1286.793 1077.315 C 1286.793 1094.093 1273.064 1107.822 1256.286 1107.822 L 1194.094 1107.822 C 1193.535 1130.642 1198.173 1156.452 1208.921 1178.056 C 1186.337 1153.785 1172.108 1132.887 1164.037 1107.822 L 1113.936 1107.822 C 1097.158 1107.822 1083.429 1094.093 1083.429 1077.315 L 1083.429 934.965 C 1083.429 918.197 1097.158 904.468 1113.936 904.468 Z " fill-rule="evenodd" fill="rgb(92,131,99)"/></g><clipPath id="_clipPath_1Lkwcg80KNgKIREf9D69xl37naLAiVg3"><path d=" M -239 -260 L -239 1963.811 L 1984.811 1963.811 L 1984.811 -260 L -239 -260 Z " fill="rgb(255,255,255)"/></clipPath><g clip-path="url(#_clipPath_1Lkwcg80KNgKIREf9D69xl37naLAiVg3)"><path d=" M 1083.429 988.724 C 1096.02 993.254 1109.563 995.726 1123.664 995.726 L 1286.793 995.726 L 1286.793 934.965 C 1286.793 918.197 1273.064 904.468 1256.286 904.468 L 1113.936 904.468 C 1097.158 904.468 1083.429 918.197 1083.429 934.965 L 1083.429 988.724 Z " fill-rule="evenodd" fill="rgb(115,141,75)"/></g><clipPath id="_clipPath_LIsIZLFBa75a1Dq5VBCSowvsC8uZOHNZ"><path d=" M -239 -260 L -239 1963.811 L 1984.811 1963.811 L 1984.811 -260 L -239 -260 Z " fill="rgb(255,255,255)"/></clipPath><g clip-path="url(#_clipPath_LIsIZLFBa75a1Dq5VBCSowvsC8uZOHNZ)"><path d=" M 1132.519 1107.822 L 1113.936 1107.822 C 1097.158 1107.822 1083.429 1094.093 1083.429 1077.315 L 1083.429 934.965 C 1083.429 928.415 1085.527 922.335 1089.077 917.353 C 1131.392 936.868 1160.762 979.653 1160.762 1029.313 C 1160.762 1059.153 1150.161 1086.503 1132.519 1107.822 Z " fill-rule="evenodd" fill="rgb(70,109,89)"/></g><clipPath id="_clipPath_KIN2dSmyZtm6log4wsdZwtVr11qeCgxL"><path d=" M -239 -260 L -239 1963.811 L 1984.811 1963.811 L 1984.811 -260 L -239 -260 Z " fill="rgb(255,255,255)"/></clipPath><g clip-path="url(#_clipPath_KIN2dSmyZtm6log4wsdZwtVr11qeCgxL)"><path d=" M 1083.429 988.724 L 1083.429 934.965 C 1083.429 929.229 1085.968 922.482 1089.175 917.432 C 1106.454 924.933 1146.641 951.264 1156.133 995.726 L 1123.664 995.726 C 1109.563 995.726 1096.02 993.254 1083.429 988.724 Z " fill-rule="evenodd" fill="rgb(85,118,85)"/></g><clipPath id="_clipPath_5wfox1asWfMPe9gz2xM98cA7C6brzHGF"><path d=" M -239 -260 L -239 1963.811 L 1984.811 1963.811 L 1984.811 -260 L -239 -260 Z " fill="rgb(255,255,255)"/></clipPath><g clip-path="url(#_clipPath_5wfox1asWfMPe9gz2xM98cA7C6brzHGF)"><path d=" M 1121.987 24.557 C 1190.053 24.557 1245.224 79.733 1245.224 147.796 C 1245.224 208.38 1201.507 258.753 1143.895 269.09 C 1144.483 293.304 1149.965 319.566 1161.085 341.936 C 1138.021 317.147 1122.458 295.388 1112.681 270.687 C 1048.969 265.93 998.751 212.728 998.751 147.796 C 998.751 79.733 1053.921 24.557 1121.987 24.557 Z " fill-rule="evenodd" fill="rgb(192,57,76)"/></g><clipPath id="_clipPath_SX5gd2BhHhjDH0zr69zum863IGtBvenW"><path d=" M -239 -260 L -239 1963.811 L 1984.811 1963.811 L 1984.811 -260 L -239 -260 Z " fill="rgb(255,255,255)"/></clipPath><g clip-path="url(#_clipPath_SX5gd2BhHhjDH0zr69zum863IGtBvenW)"><path d=" M 1210.137 233.913 C 1192.603 251.855 1169.636 264.472 1143.895 269.09 C 1144.483 293.304 1149.965 319.566 1161.085 341.936 C 1138.021 317.147 1122.458 295.388 1112.681 270.687 C 1075.897 267.94 1043.615 249.046 1022.894 221.071 L 1174.726 221.071 C 1188.151 221.071 1200.507 225.903 1210.137 233.913 Z " fill-rule="evenodd" fill="rgb(147,56,61)"/></g><clipPath id="_clipPath_rACKQezuuIK93hDDRxYWEDCld95xRolY"><path d=" M -239 -260 L -239 1963.811 L 1984.811 1963.811 L 1984.811 -260 L -239 -260 Z " fill="rgb(255,255,255)"/></clipPath><g clip-path="url(#_clipPath_rACKQezuuIK93hDDRxYWEDCld95xRolY)"><path d=" M 1002.585 178.376 C 1000.084 168.596 998.751 158.353 998.751 147.796 C 998.751 102.495 1023.198 62.91 1059.609 41.496 C 1070.21 55.865 1076.496 73.589 1076.496 92.713 L 1076.496 92.713 C 1076.496 136.037 1044.252 172.192 1002.585 178.376 Z " fill-rule="evenodd" fill="rgb(196,78,60)"/></g><clipPath id="_clipPath_VFku306VDUhER58mkUOGotES5mKvpx8Z"><path d=" M -239 -260 L -239 1963.811 L 1984.811 1963.811 L 1984.811 -260 L -239 -260 Z " fill="rgb(255,255,255)"/></clipPath><g clip-path="url(#_clipPath_VFku306VDUhER58mkUOGotES5mKvpx8Z)"><path d=" M 1434.801 136.944 L 1158.114 136.944 C 1148.357 136.944 1140.384 144.922 1140.384 154.673 L 1140.384 237.411 C 1140.384 247.162 1148.357 255.141 1158.114 255.141 L 1380.983 255.141 C 1381.032 267.939 1378.306 282.141 1372.344 294.118 C 1384.916 280.614 1393.035 268.903 1397.821 255.141 L 1434.801 255.141 C 1444.548 255.141 1452.531 247.162 1452.531 237.411 L 1452.531 154.673 C 1452.531 144.922 1444.548 136.944 1434.801 136.944 Z " fill-rule="evenodd" fill="rgb(223,164,72)"/></g><clipPath id="_clipPath_pbfXE1ZgmaL2W3A8Zml79GlCm8kQc8yA"><path d=" M -239 -260 L -239 1963.811 L 1984.811 1963.811 L 1984.811 -260 L -239 -260 Z " fill="rgb(255,255,255)"/></clipPath><g clip-path="url(#_clipPath_pbfXE1ZgmaL2W3A8Zml79GlCm8kQc8yA)"><path d=" M 1244.743 136.944 C 1245.057 140.521 1245.224 144.138 1245.224 147.796 C 1245.224 193.843 1219.963 233.985 1182.551 255.141 L 1158.114 255.141 C 1148.357 255.141 1140.384 247.162 1140.384 237.411 L 1140.384 154.673 C 1140.384 144.922 1148.357 136.944 1158.114 136.944 L 1244.743 136.944 Z " fill-rule="evenodd" fill="rgb(207,110,58)"/></g><clipPath id="_clipPath_sFtVwo4vG93IV8EnBetBMi5OisSu7Pm1"><path d=" M -239 -260 L -239 1963.811 L 1984.811 1963.811 L 1984.811 -260 L -239 -260 Z " fill="rgb(255,255,255)"/></clipPath><g clip-path="url(#_clipPath_sFtVwo4vG93IV8EnBetBMi5OisSu7Pm1)"><path d=" M 1210.127 233.911 C 1202.017 242.217 1192.73 249.382 1182.551 255.141 L 1158.114 255.141 C 1148.357 255.141 1140.384 247.162 1140.384 237.411 L 1140.384 221.071 L 1174.726 221.071 C 1188.151 221.071 1200.497 225.903 1210.127 233.911 Z " fill-rule="evenodd" fill="rgb(187,107,58)"/></g><clipPath id="_clipPath_doZJKAWsRZ5rmxF5Msf0JOH4wpnhu2sf"><path d=" M -239 -260 L -239 1963.811 L 1984.811 1963.811 L 1984.811 -260 L -239 -260 Z " fill="rgb(255,255,255)"/></clipPath><g clip-path="url(#_clipPath_doZJKAWsRZ5rmxF5Msf0JOH4wpnhu2sf)"><path d=" M 1426.514 208.299 C 1319.949 208.299 1233.564 268.873 1233.564 343.594 C 1233.564 418.316 1319.949 478.89 1426.514 478.89 C 1427.985 478.89 1429.466 478.873 1430.937 478.85 C 1434.203 513.353 1428.27 555.183 1411.266 589.374 C 1447.814 550.101 1468.525 517.216 1478.263 473.959 C 1479.39 473.741 1480.508 473.513 1481.626 473.279 C 1520.381 465.189 1559.871 447.382 1587.408 418.276 C 1606.805 397.778 1619.455 372.203 1619.455 343.594 C 1619.455 268.873 1533.07 208.299 1426.514 208.299 Z " fill-rule="evenodd" fill="rgb(228,211,97)"/></g><clipPath id="_clipPath_3XB9eafzeQmNJdCQP2fSdqCJXKjg34Lp"><path d=" M -239 -260 L -239 1963.811 L 1984.811 1963.811 L 1984.811 -260 L -239 -260 Z " fill="rgb(255,255,255)"/></clipPath><g clip-path="url(#_clipPath_3XB9eafzeQmNJdCQP2fSdqCJXKjg34Lp)"><path d=" M 1567.177 436.199 L 1285.862 436.199 C 1321.057 462.473 1371.04 478.89 1426.514 478.89 C 1427.985 478.89 1429.466 478.873 1430.937 478.85 C 1434.203 513.353 1428.27 555.183 1411.266 589.374 C 1447.814 550.101 1468.525 517.216 1478.263 473.959 C 1479.39 473.741 1480.508 473.513 1481.626 473.279 C 1511.673 467.007 1542.161 454.89 1567.177 436.199 Z " fill-rule="evenodd" fill="rgb(171,170,86)"/></g><clipPath id="_clipPath_btk8N0u17xMtc5ELwSczqF9fCzFg3rID"><path d=" M -239 -260 L -239 1963.811 L 1984.811 1963.811 L 1984.811 -260 L -239 -260 Z " fill="rgb(255,255,255)"/></clipPath><g clip-path="url(#_clipPath_btk8N0u17xMtc5ELwSczqF9fCzFg3rID)"><path d=" M 1280.507 255.141 L 1380.983 255.141 C 1381.032 267.939 1378.306 282.141 1372.344 294.118 C 1384.916 280.614 1393.035 268.903 1397.821 255.141 L 1434.801 255.141 C 1444.548 255.141 1452.531 247.162 1452.531 237.411 L 1452.531 209.529 C 1444.019 208.724 1435.34 208.299 1426.514 208.299 C 1368.176 208.299 1315.889 226.453 1280.507 255.141 Z " fill-rule="evenodd" fill="rgb(222,187,67)"/></g><clipPath id="_clipPath_dg6LzWlWtopcJeZ9gV1ydAFVZr2azVpl"><path d=" M -239 -260 L -239 1963.811 L 1984.811 1963.811 L 1984.811 -260 L -239 -260 Z " fill="rgb(255,255,255)"/></clipPath><g clip-path="url(#_clipPath_dg6LzWlWtopcJeZ9gV1ydAFVZr2azVpl)"><path d=" M 1319.507 608.301 C 1374.119 608.301 1418.385 652.571 1418.385 707.181 C 1418.385 755.793 1383.308 796.205 1337.09 804.501 C 1337.551 823.928 1341.954 845.002 1350.878 862.947 C 1332.363 843.06 1319.89 825.605 1312.045 805.776 C 1260.914 801.962 1220.63 759.274 1220.63 707.181 C 1220.63 652.571 1264.896 608.301 1319.507 608.301 Z " fill-rule="evenodd" fill="rgb(192,57,76)"/></g><clipPath id="_clipPath_A0Dtg4chzl5kdUrFmoiYsvDP3V6WJs9s"><path d=" M -239 -260 L -239 1963.811 L 1984.811 1963.811 L 1984.811 -260 L -239 -260 Z " fill="rgb(255,255,255)"/></clipPath><g clip-path="url(#_clipPath_A0Dtg4chzl5kdUrFmoiYsvDP3V6WJs9s)"><path d=" M 1405.225 756.489 C 1390.937 781.27 1366.235 799.275 1337.09 804.501 C 1337.551 823.928 1341.954 845.002 1350.878 862.947 C 1332.363 843.06 1319.89 825.605 1312.045 805.776 C 1278.536 803.276 1249.696 784.085 1233.78 756.489 L 1405.225 756.489 Z " fill-rule="evenodd" fill="rgb(196,78,60)"/></g><clipPath id="_clipPath_ojEUACIbB3vKlK0l2I3cvW0qrZFsobM6"><path d=" M -239 -260 L -239 1963.811 L 1984.811 1963.811 L 1984.811 -260 L -239 -260 Z " fill="rgb(255,255,255)"/></clipPath><g clip-path="url(#_clipPath_ojEUACIbB3vKlK0l2I3cvW0qrZFsobM6)"><path d=" M 1405.225 756.489 L 1346.651 756.489 C 1353.849 768.336 1363.352 779.328 1374.756 789.184 C 1387.23 780.76 1397.684 769.571 1405.225 756.489 Z " fill-rule="evenodd" fill="rgb(197,80,58)"/></g><clipPath id="_clipPath_uYVicX8LbCyMrrCQXHRkDowcGtjYr6X5"><path d=" M -239 -260 L -239 1963.811 L 1984.811 1963.811 L 1984.811 -260 L -239 -260 Z " fill="rgb(255,255,255)"/></clipPath><g clip-path="url(#_clipPath_uYVicX8LbCyMrrCQXHRkDowcGtjYr6X5)"><path d=" M 1244.547 642.693 L 1394.457 642.693 C 1376.325 621.636 1349.476 608.301 1319.507 608.301 C 1289.539 608.301 1262.689 621.636 1244.547 642.693 Z " fill-rule="evenodd" fill="rgb(145,53,71)"/></g><clipPath id="_clipPath_Doef5xlErETc6YUxXe5BIQmabtc5APEj"><path d=" M -239 -260 L -239 1963.811 L 1984.811 1963.811 L 1984.811 -260 L -239 -260 Z " fill="rgb(255,255,255)"/></clipPath><g clip-path="url(#_clipPath_Doef5xlErETc6YUxXe5BIQmabtc5APEj)"><path d=" M 1350.623 642.693 L 1394.457 642.693 C 1387.201 634.266 1378.551 627.079 1368.863 621.485 C 1361.92 628.127 1355.801 635.219 1350.623 642.693 Z " fill-rule="evenodd" fill="rgb(174,66,57)"/></g><clipPath id="_clipPath_HkvbqJkWHdNno3KYsvhEnJh0MT8yXKfm"><path d=" M -239 -260 L -239 1963.811 L 1984.811 1963.811 L 1984.811 -260 L -239 -260 Z " fill="rgb(255,255,255)"/></clipPath><g clip-path="url(#_clipPath_HkvbqJkWHdNno3KYsvhEnJh0MT8yXKfm)"><path d=" M 1643.078 336.311 L 1536.758 336.311 C 1524.225 336.311 1513.977 346.563 1513.977 359.093 L 1513.977 465.412 C 1513.977 477.941 1524.225 488.194 1536.758 488.194 L 1583.21 488.194 C 1583.632 505.239 1580.161 524.517 1572.139 540.648 C 1589.006 522.525 1599.636 506.917 1605.667 488.194 L 1643.078 488.194 C 1655.611 488.194 1665.859 477.941 1665.859 465.412 L 1665.859 359.093 C 1665.859 346.563 1655.611 336.311 1643.078 336.311 Z " fill-rule="evenodd" fill="rgb(223,164,72)"/></g><clipPath id="_clipPath_jKEKQ0OAKhVSS8mpjL9jDtSmCbaUMRPN"><path d=" M -239 -260 L -239 1963.811 L 1984.811 1963.811 L 1984.811 -260 L -239 -260 Z " fill="rgb(255,255,255)"/></clipPath><g clip-path="url(#_clipPath_jKEKQ0OAKhVSS8mpjL9jDtSmCbaUMRPN)"><path d=" M 1569.815 436.199 L 1513.977 436.199 L 1513.977 465.412 C 1513.977 477.941 1524.225 488.194 1536.758 488.194 L 1583.21 488.194 C 1583.632 505.239 1580.161 524.517 1572.139 540.648 C 1585.152 526.665 1594.449 514.179 1600.793 500.606 L 1600.793 467.173 C 1600.793 450.136 1586.849 436.199 1569.815 436.199 Z " fill-rule="evenodd" fill="rgb(168,133,67)"/></g><clipPath id="_clipPath_XHDmhTBsYeNe5f1X3MX0MQ6EvEpEfSBE"><path d=" M -239 -260 L -239 1963.811 L 1984.811 1963.811 L 1984.811 -260 L -239 -260 Z " fill="rgb(255,255,255)"/></clipPath><g clip-path="url(#_clipPath_XHDmhTBsYeNe5f1X3MX0MQ6EvEpEfSBE)"><path d=" M 1567.177 436.199 L 1513.977 436.199 L 1513.977 464.198 C 1532.923 457.429 1551.173 448.16 1567.177 436.199 Z " fill-rule="evenodd" fill="rgb(171,170,86)"/></g><clipPath id="_clipPath_uTlZVPOD4U1dkUtz7zPoO7TdkA0DpRMf"><path d=" M -239 -260 L -239 1963.811 L 1984.811 1963.811 L 1984.811 -260 L -239 -260 Z " fill="rgb(255,255,255)"/></clipPath><g clip-path="url(#_clipPath_uTlZVPOD4U1dkUtz7zPoO7TdkA0DpRMf)"><path d=" M 1619.18 336.311 L 1536.758 336.311 C 1524.225 336.311 1513.977 346.563 1513.977 359.093 L 1513.977 464.197 C 1541.494 454.365 1567.559 439.256 1587.408 418.276 C 1606.805 397.778 1619.455 372.203 1619.455 343.594 C 1619.455 341.151 1619.357 338.722 1619.18 336.311 Z " fill-rule="evenodd" fill="rgb(204,148,66)"/></g><clipPath id="_clipPath_wKA5xzBJxs96Mel15JgkAxuYkW2APhv3"><path d=" M -239 -260 L -239 1963.811 L 1984.811 1963.811 L 1984.811 -260 L -239 -260 Z " fill="rgb(255,255,255)"/></clipPath><g clip-path="url(#_clipPath_wKA5xzBJxs96Mel15JgkAxuYkW2APhv3)"><path d=" M 245.639 184.022 L 351.957 184.022 C 364.486 184.022 374.739 194.274 374.739 206.804 L 374.739 313.122 C 374.739 325.652 364.486 335.905 351.957 335.905 L 305.509 335.905 C 305.089 352.951 308.552 372.228 316.578 388.36 C 299.711 370.237 289.083 354.628 283.054 335.905 L 245.639 335.905 C 233.107 335.905 222.856 325.652 222.856 313.122 L 222.856 206.804 C 222.856 194.274 233.107 184.022 245.639 184.022 Z " fill-rule="evenodd" fill="rgb(223,164,72)"/></g><clipPath id="_clipPath_fMy8E0Bhl7St6UbVaxjPaetHQaUH4KiB"><path d=" M -239 -260 L -239 1963.811 L 1984.811 1963.811 L 1984.811 -260 L -239 -260 Z " fill="rgb(255,255,255)"/></clipPath><g clip-path="url(#_clipPath_fMy8E0Bhl7St6UbVaxjPaetHQaUH4KiB)"><path d=" M 319.801 184.022 L 351.957 184.022 C 364.486 184.022 374.739 194.274 374.739 206.804 L 374.739 313.122 C 374.739 325.652 364.486 335.905 351.957 335.905 L 321.528 335.905 C 320.407 332.396 319.801 328.664 319.801 324.796 L 319.801 184.022 Z " fill-rule="evenodd" fill="rgb(207,110,58)"/></g><clipPath id="_clipPath_2DTWlWuLYIYSOobzqAFkLAGqSvlpOVE1"><path d=" M -239 -260 L -239 1963.811 L 1984.811 1963.811 L 1984.811 -260 L -239 -260 Z " fill="rgb(255,255,255)"/></clipPath><g clip-path="url(#_clipPath_2DTWlWuLYIYSOobzqAFkLAGqSvlpOVE1)"><path d=" M 374.739 282.911 L 374.739 313.122 C 374.739 325.652 364.486 335.905 351.957 335.905 L 321.528 335.905 C 320.407 332.396 319.801 328.664 319.801 324.796 L 319.801 282.911 L 374.739 282.911 Z " fill-rule="evenodd" fill="rgb(213,144,59)"/></g><clipPath id="_clipPath_1H4BTkEKD0G0TN8ZJKcJF56qb0nf3uZE"><path d=" M -239 -260 L -239 1963.811 L 1984.811 1963.811 L 1984.811 -260 L -239 -260 Z " fill="rgb(255,255,255)"/></clipPath><g clip-path="url(#_clipPath_1H4BTkEKD0G0TN8ZJKcJF56qb0nf3uZE)"><path d=" M 374.739 282.911 L 374.739 313.122 C 374.739 325.652 364.486 335.905 351.957 335.905 L 321.528 335.905 C 320.407 332.396 319.801 328.664 319.801 324.796 L 319.801 282.911 L 374.739 282.911 Z " fill="none" vector-effect="non-scaling-stroke" stroke-width="0.216" stroke="rgb(213,144,59)" stroke-linejoin="miter" stroke-linecap="square" stroke-miterlimit="3"/></g><clipPath id="_clipPath_Xt7O8J28KeWi2DKTQJlme8ntut6aDiwQ"><path d=" M -239 -260 L -239 1963.811 L 1984.811 1963.811 L 1984.811 -260 L -239 -260 Z " fill="rgb(255,255,255)"/></clipPath><g clip-path="url(#_clipPath_Xt7O8J28KeWi2DKTQJlme8ntut6aDiwQ)"><path d=" M 1270.054 71.984 C 1227.651 71.984 1193.28 96.088 1193.28 125.823 C 1193.28 155.558 1227.651 179.662 1270.054 179.662 C 1270.642 179.662 1271.23 179.655 1271.819 179.647 C 1273.113 193.377 1270.76 210.022 1263.993 223.629 C 1278.536 208 1286.774 194.914 1290.657 177.7 C 1291.098 177.613 1291.549 177.522 1291.991 177.43 C 1307.416 174.211 1323.126 167.124 1334.089 155.542 C 1341.807 147.384 1346.838 137.207 1346.838 125.823 C 1346.838 96.088 1312.466 71.984 1270.054 71.984 Z " fill-rule="evenodd" fill="rgb(92,131,99)"/></g><clipPath id="_clipPath_z5FgNsSEpHU8p42lgpxUsxt3pDX6LPBR"><path d=" M -239 -260 L -239 1963.811 L 1984.811 1963.811 L 1984.811 -260 L -239 -260 Z " fill="rgb(255,255,255)"/></clipPath><g clip-path="url(#_clipPath_z5FgNsSEpHU8p42lgpxUsxt3pDX6LPBR)"><path d=" M 1226.023 81.715 C 1206.224 91.453 1193.28 107.576 1193.28 125.823 C 1193.28 148.611 1213.461 168.091 1241.988 175.951 C 1244.106 166.907 1245.224 157.483 1245.224 147.796 C 1245.224 123.48 1238.183 100.813 1226.023 81.715 Z " fill-rule="evenodd" fill="rgb(103,85,70)"/></g><clipPath id="_clipPath_6lSmBIUJCkEHRaEwVbOySTrFqkl5C60N"><path d=" M -239 -260 L -239 1963.811 L 1984.811 1963.811 L 1984.811 -260 L -239 -260 Z " fill="rgb(255,255,255)"/></clipPath><g clip-path="url(#_clipPath_6lSmBIUJCkEHRaEwVbOySTrFqkl5C60N)"><path d=" M 1194.917 136.944 C 1200.272 154.804 1218.237 169.406 1241.988 175.951 C 1244.106 166.907 1245.224 157.483 1245.224 147.796 C 1245.224 144.139 1245.067 140.52 1244.753 136.944 L 1194.917 136.944 Z " fill-rule="evenodd" fill="rgb(120,108,62)"/></g><clipPath id="_clipPath_GfxaGETx4iNUBGmcfRx8yuYUh5Y8v8hC"><path d=" M -239 -260 L -239 1963.811 L 1984.811 1963.811 L 1984.811 -260 L -239 -260 Z " fill="rgb(255,255,255)"/></clipPath><g clip-path="url(#_clipPath_GfxaGETx4iNUBGmcfRx8yuYUh5Y8v8hC)"><path d=" M 117.828 379.49 C 160.234 379.49 194.61 403.594 194.61 433.33 C 194.61 463.064 160.234 487.169 117.828 487.169 C 117.24 487.169 116.653 487.163 116.068 487.153 C 114.768 500.883 117.127 517.53 123.897 531.135 C 109.351 515.508 101.111 502.421 97.233 485.207 C 96.786 485.121 96.341 485.029 95.897 484.936 C 80.473 481.718 64.758 474.631 53.8 463.048 C 46.081 454.89 41.046 444.713 41.046 433.33 C 41.046 403.594 75.422 379.49 117.828 379.49 Z " fill-rule="evenodd" fill="rgb(92,131,99)"/></g><clipPath id="_clipPath_ZxWk5AjplJUUUBYbRXSOAk3AzqwUGM9B"><path d=" M -239 -260 L -239 1963.811 L 1984.811 1963.811 L 1984.811 -260 L -239 -260 Z " fill="rgb(255,255,255)"/></clipPath><g clip-path="url(#_clipPath_ZxWk5AjplJUUUBYbRXSOAk3AzqwUGM9B)"><path d=" M 159.264 478.664 C 147.31 484.047 133.09 487.169 117.828 487.169 C 117.24 487.169 116.653 487.163 116.068 487.153 C 114.768 500.883 117.127 517.53 123.897 531.135 C 109.351 515.508 101.111 502.421 97.233 485.207 C 96.786 485.121 96.341 485.029 95.897 484.936 C 84.323 482.521 72.585 477.929 62.816 470.892 C 75.386 465.103 89.375 461.871 104.121 461.871 C 124.539 461.871 143.51 468.06 159.264 478.664 Z " fill-rule="evenodd" fill="rgb(103,85,70)"/></g><clipPath id="_clipPath_rlRVxhqsHNzUKChGeoHWsod1PjdvL2bu"><path d=" M -239 -260 L -239 1963.811 L 1984.811 1963.811 L 1984.811 -260 L -239 -260 Z " fill="rgb(255,255,255)"/></clipPath><g clip-path="url(#_clipPath_rlRVxhqsHNzUKChGeoHWsod1PjdvL2bu)"><path d=" M 109.15 379.834 L 109.15 512.884 C 113.111 518.847 117.982 524.781 123.897 531.135 C 117.127 517.53 114.768 500.883 116.068 487.153 C 116.653 487.163 117.24 487.169 117.828 487.169 C 160.234 487.169 194.61 463.064 194.61 433.33 C 194.61 403.594 160.234 379.49 117.828 379.49 C 114.893 379.49 112 379.61 109.15 379.834 Z " fill-rule="evenodd" fill="rgb(115,141,75)"/></g><clipPath id="_clipPath_kxGz8KZnVyL4qz8HzWPh2p0zMZSN03kI"><path d=" M -239 -260 L -239 1963.811 L 1984.811 1963.811 L 1984.811 -260 L -239 -260 Z " fill="rgb(255,255,255)"/></clipPath><g clip-path="url(#_clipPath_kxGz8KZnVyL4qz8HzWPh2p0zMZSN03kI)"><path d=" M 1347.495 948.4 C 1296.286 948.4 1254.775 977.505 1254.775 1013.407 C 1254.775 1049.308 1296.286 1078.413 1347.495 1078.413 C 1348.201 1078.413 1348.907 1078.413 1349.613 1078.393 C 1351.182 1094.976 1348.338 1115.079 1340.159 1131.505 C 1357.723 1112.637 1367.676 1096.829 1372.364 1076.05 C 1372.903 1075.942 1373.433 1075.834 1373.972 1075.726 C 1392.594 1071.833 1411.569 1063.282 1424.808 1049.288 C 1434.124 1039.443 1440.204 1027.155 1440.204 1013.407 C 1440.204 977.505 1398.694 948.4 1347.495 948.4 Z " fill-rule="evenodd" fill="rgb(223,164,72)"/></g><clipPath id="_clipPath_WDfybDSmxgvvFRMYC7qx4yn0YgPRvjeL"><path d=" M -239 -260 L -239 1963.811 L 1984.811 1963.811 L 1984.811 -260 L -239 -260 Z " fill="rgb(255,255,255)"/></clipPath><g clip-path="url(#_clipPath_WDfybDSmxgvvFRMYC7qx4yn0YgPRvjeL)"><path d=" M 1347.495 948.4 C 1305.023 948.4 1269.23 968.415 1258.247 995.726 L 1436.733 995.726 C 1425.75 968.415 1389.956 948.4 1347.495 948.4 Z " fill-rule="evenodd" fill="rgb(204,148,66)"/></g><clipPath id="_clipPath_QugjAYcyHVRzzlHNMziiJJ31fPzYDgZB"><path d=" M -239 -260 L -239 1963.811 L 1984.811 1963.811 L 1984.811 -260 L -239 -260 Z " fill="rgb(255,255,255)"/></clipPath><g clip-path="url(#_clipPath_QugjAYcyHVRzzlHNMziiJJ31fPzYDgZB)"><path d=" M 1286.793 964.267 C 1267.18 976.191 1254.775 993.784 1254.775 1013.407 C 1254.775 1033.029 1267.18 1050.632 1286.793 1062.546 L 1286.793 964.267 Z " fill-rule="evenodd" fill="rgb(170,139,63)"/></g><clipPath id="_clipPath_YJVTRkoNus6mOU2nkykSmssrkaYaMPPD"><path d=" M -239 -260 L -239 1963.811 L 1984.811 1963.811 L 1984.811 -260 L -239 -260 Z " fill="rgb(255,255,255)"/></clipPath><g clip-path="url(#_clipPath_YJVTRkoNus6mOU2nkykSmssrkaYaMPPD)"><path d=" M 1258.247 995.726 L 1286.793 995.726 L 1286.793 964.267 C 1273.3 972.465 1263.228 983.35 1258.247 995.726 Z " fill-rule="evenodd" fill="rgb(173,144,63)"/></g><clipPath id="_clipPath_b40HxSHnMeFdJBpWSJRj6SS7evPPmhCa"><path d=" M -239 -260 L -239 1963.811 L 1984.811 1963.811 L 1984.811 -260 L -239 -260 Z " fill="rgb(255,255,255)"/></clipPath><g clip-path="url(#_clipPath_b40HxSHnMeFdJBpWSJRj6SS7evPPmhCa)"><path d=" M 446.208 901.535 L 588.556 901.535 C 605.333 901.535 619.059 915.264 619.059 932.043 L 619.059 1074.392 C 619.059 1091.161 605.333 1104.89 588.556 1104.89 L 526.368 1104.89 C 525.807 1127.719 530.442 1153.53 541.188 1175.123 C 518.605 1150.863 504.376 1129.965 496.303 1104.89 L 446.208 1104.89 C 429.431 1104.89 415.705 1091.161 415.705 1074.392 L 415.705 932.043 C 415.705 915.264 429.431 901.535 446.208 901.535 Z " fill-rule="evenodd" fill="rgb(92,131,99)"/></g><clipPath id="_clipPath_dheA8Tmk1v1QTSSDSr5iJ5bCTmtMLUJh"><path d=" M -239 -260 L -239 1963.811 L 1984.811 1963.811 L 1984.811 -260 L -239 -260 Z " fill="rgb(255,255,255)"/></clipPath><g clip-path="url(#_clipPath_dheA8Tmk1v1QTSSDSr5iJ5bCTmtMLUJh)"><path d=" M 610.842 911.273 L 594.163 911.273 C 571.147 911.273 552.314 930.101 552.314 953.117 L 552.314 1104.89 L 588.556 1104.89 C 605.333 1104.89 619.059 1091.161 619.059 1074.392 L 619.059 932.043 C 619.059 924.031 615.932 916.726 610.842 911.273 Z " fill-rule="evenodd" fill="rgb(103,85,70)"/></g><clipPath id="_clipPath_rG1bwrXK1l2AgIBly6e60aEdBRaaKoKn"><path d=" M -239 -260 L -239 1963.811 L 1984.811 1963.811 L 1984.811 -260 L -239 -260 Z " fill="rgb(255,255,255)"/></clipPath><g clip-path="url(#_clipPath_rG1bwrXK1l2AgIBly6e60aEdBRaaKoKn)"><path d=" M 446.208 901.535 L 588.556 901.535 C 605.333 901.535 619.059 915.264 619.059 932.043 L 619.059 960.854 C 613.899 961.55 608.638 961.913 603.295 961.913 L 415.705 961.913 L 415.705 932.043 C 415.705 915.264 429.431 901.535 446.208 901.535 Z " fill-rule="evenodd" fill="rgb(70,109,89)"/></g><clipPath id="_clipPath_btvkNjfTtthjRpPfYQQaT5tfah0b2O26"><path d=" M -239 -260 L -239 1963.811 L 1984.811 1963.811 L 1984.811 -260 L -239 -260 Z " fill="rgb(255,255,255)"/></clipPath><g clip-path="url(#_clipPath_btvkNjfTtthjRpPfYQQaT5tfah0b2O26)"><path d=" M 610.842 911.273 C 615.932 916.726 619.059 924.031 619.059 932.043 L 619.059 960.854 C 616.64 961.178 614.2 961.433 611.738 961.609 L 611.492 961.629 L 611.246 961.649 C 610.929 961.668 610.613 961.688 610.296 961.707 C 609.931 961.727 609.566 961.747 609.2 961.766 L 608.652 961.796 C 608.151 961.815 607.648 961.835 607.146 961.854 L 606.924 961.854 C 606.351 961.874 605.776 961.894 605.199 961.894 L 605.133 961.904 C 604.522 961.913 603.909 961.913 603.295 961.913 L 552.314 961.913 L 552.314 953.117 C 552.314 930.101 571.147 911.273 594.163 911.273 L 610.842 911.273 Z " fill-rule="evenodd" fill="rgb(80,94,81)"/></g><clipPath id="_clipPath_cyS8wNHO1cqYGbuMzuvR8J7aLdHA6GPV"><path d=" M -239 -260 L -239 1963.811 L 1984.811 1963.811 L 1984.811 -260 L -239 -260 Z " fill="rgb(255,255,255)"/></clipPath><g clip-path="url(#_clipPath_cyS8wNHO1cqYGbuMzuvR8J7aLdHA6GPV)"><path d=" M 380.4 941.604 C 331.068 941.604 291.077 969.641 291.077 1004.238 C 291.077 1038.825 331.068 1066.861 380.4 1066.861 C 381.084 1066.861 381.766 1066.861 382.448 1066.851 C 383.959 1082.816 381.215 1102.184 373.34 1118.011 C 390.262 1099.83 399.848 1084.611 404.36 1064.586 C 404.88 1064.478 405.396 1064.38 405.912 1064.272 C 423.856 1060.526 442.138 1052.279 454.886 1038.805 C 463.866 1029.313 469.723 1017.476 469.723 1004.238 C 469.723 969.641 429.732 941.604 380.4 941.604 Z " fill-rule="evenodd" fill="rgb(223,164,72)"/></g><clipPath id="_clipPath_LUpy3voCjX9Jt4iplFrbIM3xC1llI7MW"><path d=" M -239 -260 L -239 1963.811 L 1984.811 1963.811 L 1984.811 -260 L -239 -260 Z " fill="rgb(255,255,255)"/></clipPath><g clip-path="url(#_clipPath_LUpy3voCjX9Jt4iplFrbIM3xC1llI7MW)"><path d=" M 415.705 1061.772 C 430.325 1057.349 444.457 1049.827 454.886 1038.805 C 463.866 1029.313 469.723 1017.476 469.723 1004.238 C 469.723 978.437 447.477 956.284 415.705 946.684 L 415.705 1061.772 Z " fill-rule="evenodd" fill="rgb(170,139,63)"/></g><clipPath id="_clipPath_xTrtgM7mIF9gHqExC9NtzEC7pknp6rjh"><path d=" M -239 -260 L -239 1963.811 L 1984.811 1963.811 L 1984.811 -260 L -239 -260 Z " fill="rgb(255,255,255)"/></clipPath><g clip-path="url(#_clipPath_xTrtgM7mIF9gHqExC9NtzEC7pknp6rjh)"><path d=" M 380.4 941.604 C 354.337 941.604 330.884 949.43 314.555 961.913 L 446.245 961.913 C 429.916 949.43 406.463 941.604 380.4 941.604 Z " fill-rule="evenodd" fill="rgb(168,133,67)"/></g><clipPath id="_clipPath_5IllPx08OJ7CnoA3qHklzq7mIzeVJoaz"><path d=" M -239 -260 L -239 1963.811 L 1984.811 1963.811 L 1984.811 -260 L -239 -260 Z " fill="rgb(255,255,255)"/></clipPath><g clip-path="url(#_clipPath_5IllPx08OJ7CnoA3qHklzq7mIzeVJoaz)"><path d=" M 415.705 961.913 L 446.245 961.913 C 437.773 955.431 427.382 950.214 415.705 946.684 L 415.705 961.913 Z " fill-rule="evenodd" fill="rgb(152,130,63)"/></g><clipPath id="_clipPath_MpJPvAHZ8lS7tW3iHqo0M7OGwxmis6WE"><path d=" M -239 -260 L -239 1963.811 L 1984.811 1963.811 L 1984.811 -260 L -239 -260 Z " fill="rgb(255,255,255)"/></clipPath><g clip-path="url(#_clipPath_MpJPvAHZ8lS7tW3iHqo0M7OGwxmis6WE)"><path d=" M 847.772 1073.118 C 789.071 1073.118 741.491 1106.479 741.491 1147.646 C 741.491 1188.794 789.071 1222.165 847.772 1222.165 C 848.586 1222.165 849.4 1222.155 850.204 1222.145 C 852.008 1241.15 848.743 1264.185 839.368 1283.023 C 859.5 1261.39 870.915 1243.278 876.279 1219.448 C 876.897 1219.331 877.514 1219.203 878.122 1219.076 C 899.471 1214.614 921.231 1204.807 936.392 1188.774 C 947.081 1177.487 954.053 1163.395 954.053 1147.646 C 954.053 1106.479 906.463 1073.118 847.772 1073.118 Z " fill-rule="evenodd" fill="rgb(92,131,99)"/></g><clipPath id="_clipPath_if5R8vhDxTmPnEsRSJsOya0gdP6l3yXO"><path d=" M -239 -260 L -239 1963.811 L 1984.811 1963.811 L 1984.811 -260 L -239 -260 Z " fill="rgb(255,255,255)"/></clipPath><g clip-path="url(#_clipPath_if5R8vhDxTmPnEsRSJsOya0gdP6l3yXO)"><path d=" M 747.6 1122.708 C 743.648 1130.504 741.491 1138.899 741.491 1147.646 C 741.491 1188.794 789.071 1222.165 847.772 1222.165 C 848.586 1222.165 849.4 1222.155 850.204 1222.145 C 852.008 1241.15 848.743 1264.185 839.368 1283.023 C 843.526 1278.551 847.311 1274.236 850.753 1269.99 C 856.333 1257.124 859.431 1242.944 859.431 1228.029 C 859.431 1169.75 812.184 1122.512 753.915 1122.512 C 751.797 1122.512 749.688 1122.581 747.6 1122.708 Z " fill-rule="evenodd" fill="rgb(70,109,89)"/></g><clipPath id="_clipPath_0C5WEDiDBTOiD0aOW8tGinpkqxpTh4Rr"><path d=" M -239 -260 L -239 1963.811 L 1984.811 1963.811 L 1984.811 -260 L -239 -260 Z " fill="rgb(255,255,255)"/></clipPath><g clip-path="url(#_clipPath_0C5WEDiDBTOiD0aOW8tGinpkqxpTh4Rr)"><path d=" M 760.583 1190.265 L 789.463 1190.265 C 812.479 1190.265 831.307 1171.436 831.307 1148.411 L 831.307 1074.01 C 780.431 1079.56 741.491 1110.411 741.491 1147.646 C 741.491 1163.493 748.551 1178.183 760.583 1190.265 Z " fill-rule="evenodd" fill="rgb(103,85,70)"/></g><clipPath id="_clipPath_WVwTGma61OjLuQktuqXa8DupM6JG5PLT"><path d=" M -239 -260 L -239 1963.811 L 1984.811 1963.811 L 1984.811 -260 L -239 -260 Z " fill="rgb(255,255,255)"/></clipPath><g clip-path="url(#_clipPath_WVwTGma61OjLuQktuqXa8DupM6JG5PLT)"><path d=" M 760.583 1190.265 L 789.463 1190.265 C 789.806 1190.265 790.149 1190.255 790.493 1190.255 C 790.591 1190.245 790.699 1190.245 790.797 1190.245 C 791.032 1190.235 791.258 1190.225 791.493 1190.215 C 791.63 1190.206 791.767 1190.196 791.905 1190.186 C 792.101 1190.176 792.307 1190.166 792.513 1190.157 C 792.65 1190.137 792.797 1190.127 792.944 1190.117 C 793.131 1190.098 793.317 1190.088 793.503 1190.068 C 793.65 1190.049 793.797 1190.039 793.945 1190.019 C 794.141 1190 794.337 1189.98 794.533 1189.951 L 794.935 1189.902 C 795.131 1189.872 795.337 1189.843 795.543 1189.823 C 795.67 1189.794 795.798 1189.774 795.935 1189.755 C 796.131 1189.725 796.337 1189.696 796.533 1189.657 C 796.661 1189.637 796.788 1189.617 796.916 1189.588 C 797.151 1189.549 797.396 1189.5 797.632 1189.451 L 797.887 1189.402 C 798.21 1189.343 798.534 1189.264 798.848 1189.196 L 799.093 1189.137 C 799.328 1189.078 799.564 1189.019 799.799 1188.96 C 799.926 1188.931 800.044 1188.901 800.162 1188.862 C 800.358 1188.813 800.554 1188.764 800.74 1188.705 C 800.887 1188.666 801.025 1188.627 801.162 1188.588 C 801.339 1188.529 801.505 1188.48 801.682 1188.431 L 802.094 1188.303 C 802.27 1188.244 802.447 1188.186 802.623 1188.127 L 803.025 1187.989 C 803.202 1187.931 803.378 1187.872 803.555 1187.803 L 803.937 1187.666 C 804.124 1187.597 804.31 1187.529 804.486 1187.45 C 804.604 1187.411 804.732 1187.362 804.849 1187.313 C 805.045 1187.234 805.251 1187.156 805.447 1187.068 C 805.545 1187.028 805.644 1186.989 805.751 1186.94 C 806.046 1186.822 806.33 1186.695 806.624 1186.558 C 806.712 1186.518 806.791 1186.479 806.879 1186.44 C 807.075 1186.352 807.281 1186.254 807.477 1186.156 C 807.605 1186.097 807.742 1186.028 807.87 1185.969 C 808.036 1185.881 808.193 1185.803 808.35 1185.724 C 808.487 1185.656 808.625 1185.587 808.762 1185.508 C 808.899 1185.44 809.037 1185.361 809.184 1185.293 C 809.331 1185.214 809.478 1185.126 809.625 1185.048 L 810.027 1184.822 C 810.164 1184.744 810.311 1184.655 810.458 1184.577 L 810.86 1184.341 C 810.998 1184.253 811.125 1184.175 811.263 1184.087 C 811.41 1184.008 811.547 1183.91 811.694 1183.822 C 811.822 1183.743 811.949 1183.655 812.086 1183.577 C 812.204 1183.498 812.322 1183.41 812.449 1183.331 C 812.596 1183.233 812.743 1183.135 812.89 1183.037 C 813.018 1182.959 813.145 1182.861 813.263 1182.782 C 813.489 1182.625 813.714 1182.468 813.93 1182.302 C 814.087 1182.194 814.244 1182.076 814.401 1181.968 C 814.528 1181.87 814.656 1181.762 814.793 1181.664 C 814.911 1181.576 815.028 1181.478 815.156 1181.39 C 815.283 1181.282 815.411 1181.184 815.538 1181.076 C 815.656 1180.988 815.773 1180.89 815.891 1180.792 C 816.019 1180.684 816.156 1180.586 816.283 1180.468 L 816.627 1180.174 C 816.754 1180.066 816.882 1179.958 817.009 1179.85 L 817.323 1179.566 C 817.46 1179.448 817.588 1179.33 817.725 1179.213 L 818.019 1178.928 C 818.156 1178.801 818.284 1178.673 818.421 1178.556 L 818.666 1178.311 C 818.813 1178.163 818.961 1178.026 819.108 1177.879 L 819.245 1177.742 C 819.765 1177.202 820.275 1176.663 820.765 1176.104 L 820.99 1175.859 C 821.108 1175.712 821.236 1175.565 821.363 1175.418 C 821.442 1175.329 821.52 1175.241 821.598 1175.143 C 821.726 1174.996 821.844 1174.839 821.971 1174.682 L 822.187 1174.408 C 822.314 1174.261 822.432 1174.104 822.56 1173.947 L 822.765 1173.672 C 822.883 1173.515 823.001 1173.358 823.118 1173.201 L 823.334 1172.907 C 823.452 1172.75 823.57 1172.584 823.687 1172.427 L 823.844 1172.191 C 823.972 1172.005 824.099 1171.819 824.227 1171.632 L 824.315 1171.505 C 824.933 1170.573 825.511 1169.632 826.051 1168.651 L 826.139 1168.504 C 826.247 1168.308 826.355 1168.102 826.462 1167.906 L 826.59 1167.651 C 826.688 1167.465 826.786 1167.278 826.884 1167.082 L 827.021 1166.808 C 827.11 1166.621 827.208 1166.425 827.296 1166.229 L 827.423 1165.955 C 827.522 1165.758 827.61 1165.572 827.688 1165.376 L 827.816 1165.092 C 827.904 1164.895 827.992 1164.689 828.08 1164.484 L 828.149 1164.307 C 828.581 1163.268 828.973 1162.218 829.316 1161.14 L 829.365 1161.002 C 829.434 1160.767 829.502 1160.522 829.581 1160.286 L 829.64 1160.09 C 829.708 1159.855 829.767 1159.629 829.836 1159.394 L 829.895 1159.159 C 829.954 1158.943 830.012 1158.717 830.071 1158.502 L 830.14 1158.207 C 830.189 1157.992 830.238 1157.776 830.287 1157.56 L 830.356 1157.286 C 830.405 1157.06 830.454 1156.835 830.493 1156.609 L 830.542 1156.384 C 830.591 1156.138 830.63 1155.893 830.679 1155.638 C 811.439 1135.241 784.168 1122.512 753.915 1122.512 C 751.797 1122.512 749.688 1122.571 747.59 1122.699 C 743.638 1130.495 741.491 1138.889 741.491 1147.646 C 741.491 1163.493 748.551 1178.183 760.583 1190.265 Z " fill-rule="evenodd" fill="rgb(80,94,81)"/></g><clipPath id="_clipPath_dByNAi5UN8ChpaQFupUaWVlncOO4N9SY"><path d=" M -239 -260 L -239 1963.811 L 1984.811 1963.811 L 1984.811 -260 L -239 -260 Z " fill="rgb(255,255,255)"/></clipPath><g clip-path="url(#_clipPath_dByNAi5UN8ChpaQFupUaWVlncOO4N9SY)"><path d=" M 888.998 854.681 C 973.774 854.681 1042.507 902.869 1042.507 962.325 C 1042.507 1021.771 973.774 1069.96 888.998 1069.96 C 887.821 1069.96 886.644 1069.95 885.477 1069.931 C 882.879 1097.379 887.595 1130.661 901.128 1157.864 C 872.042 1126.621 855.568 1100.458 847.821 1066.037 C 846.928 1065.861 846.036 1065.684 845.153 1065.498 C 814.312 1059.065 782.893 1044.895 760.985 1021.732 C 745.55 1005.434 735.485 985.076 735.485 962.325 C 735.485 902.869 804.212 854.681 888.998 854.681 Z " fill-rule="evenodd" fill="rgb(223,164,72)"/></g><clipPath id="_clipPath_iyt88VKaClG8pOeieF2s4zCwFuHSopA6"><path d=" M -239 -260 L -239 1963.811 L 1984.811 1963.811 L 1984.811 -260 L -239 -260 Z " fill="rgb(255,255,255)"/></clipPath><g clip-path="url(#_clipPath_iyt88VKaClG8pOeieF2s4zCwFuHSopA6)"><path d=" M 1020.874 907.204 C 960.692 915.333 914.288 966.905 914.288 1029.313 C 914.288 1042.718 916.436 1055.623 920.388 1067.704 C 990.111 1057.545 1042.507 1014.221 1042.507 962.325 C 1042.507 942.173 1034.603 923.325 1020.874 907.204 Z " fill-rule="evenodd" fill="rgb(168,133,67)"/></g><clipPath id="_clipPath_zSSDQsWQM3UOMZEokRwVzumq1DP7Sy3z"><path d=" M -239 -260 L -239 1963.811 L 1984.811 1963.811 L 1984.811 -260 L -239 -260 Z " fill="rgb(255,255,255)"/></clipPath><g clip-path="url(#_clipPath_zSSDQsWQM3UOMZEokRwVzumq1DP7Sy3z)"><path d=" M 1020.874 907.204 C 1016.785 907.753 1012.764 908.518 1008.812 909.459 C 1014.961 930.504 1026.787 949.204 1042.487 963.757 C 1042.497 963.286 1042.507 962.806 1042.507 962.325 C 1042.507 942.173 1034.603 923.325 1020.874 907.204 Z " fill-rule="evenodd" fill="rgb(172,141,67)"/></g><clipPath id="_clipPath_PPpus8Yvy9pHmDzjRIwaCOu4graMIBdh"><path d=" M -239 -260 L -239 1963.811 L 1984.811 1963.811 L 1984.811 -260 L -239 -260 Z " fill="rgb(255,255,255)"/></clipPath><g clip-path="url(#_clipPath_PPpus8Yvy9pHmDzjRIwaCOu4graMIBdh)"><path d=" M 831.307 1062.085 C 805.124 1054.623 779.617 1041.433 760.985 1021.732 C 745.55 1005.434 735.485 985.076 735.485 962.325 C 735.485 943.85 742.128 926.463 753.817 911.273 L 789.463 911.273 C 812.479 911.273 831.307 930.101 831.307 953.117 L 831.307 1062.085 Z " fill-rule="evenodd" fill="rgb(207,110,58)"/></g><clipPath id="_clipPath_ZXLEMN5mzzi0yBQ3j2qlqkJ83LDpBc9e"><path d=" M -239 -260 L -239 1963.811 L 1984.811 1963.811 L 1984.811 -260 L -239 -260 Z " fill="rgb(255,255,255)"/></clipPath><g clip-path="url(#_clipPath_ZXLEMN5mzzi0yBQ3j2qlqkJ83LDpBc9e)"><path d=" M 1130.695 561.815 C 1060.001 561.815 1002.693 619.125 1002.693 689.82 C 1002.693 752.743 1048.096 805.07 1107.935 815.808 C 1107.337 840.952 1101.639 868.233 1090.077 891.464 C 1114.044 865.723 1130.205 843.119 1140.364 817.465 C 1206.538 812.523 1258.698 757.264 1258.698 689.82 C 1258.698 619.125 1201.39 561.815 1130.695 561.815 Z " fill-rule="evenodd" fill="rgb(223,164,72)"/></g><clipPath id="_clipPath_lBErJTNrxDyLlyl0sDhP3IvWaKONf4TI"><path d=" M -239 -260 L -239 1963.811 L 1984.811 1963.811 L 1984.811 -260 L -239 -260 Z " fill="rgb(255,255,255)"/></clipPath><g clip-path="url(#_clipPath_lBErJTNrxDyLlyl0sDhP3IvWaKONf4TI)"><path d=" M 1130.695 561.815 C 1102.571 561.815 1076.574 570.893 1055.451 586.267 L 1055.451 611.719 C 1055.451 628.755 1069.386 642.693 1086.42 642.693 L 1249.745 642.693 C 1230.975 595.32 1184.748 561.815 1130.695 561.815 Z " fill-rule="evenodd" fill="rgb(168,133,67)"/></g><clipPath id="_clipPath_h2bnX9U4LQ1ODOX8tDYbvH0UkEM7Ei0a"><path d=" M -239 -260 L -239 1963.811 L 1984.811 1963.811 L 1984.811 -260 L -239 -260 Z " fill="rgb(255,255,255)"/></clipPath><g clip-path="url(#_clipPath_h2bnX9U4LQ1ODOX8tDYbvH0UkEM7Ei0a)"><path d=" M 1202.429 583.789 C 1194.26 588.528 1184.797 591.246 1174.726 591.246 L 1061.521 591.246 C 1060.492 632.792 1068.935 679.774 1088.499 719.092 C 1057.893 686.209 1035.721 656.722 1020.325 624.971 C 1042.575 587.18 1083.664 561.815 1130.695 561.815 C 1157.28 561.815 1181.963 569.92 1202.429 583.789 Z " fill-rule="evenodd" fill="rgb(170,139,63)"/></g><clipPath id="_clipPath_O6iEy4vlyo1XqUbWXfN5lcRrdlt5OAic"><path d=" M -239 -260 L -239 1963.811 L 1984.811 1963.811 L 1984.811 -260 L -239 -260 Z " fill="rgb(255,255,255)"/></clipPath><g clip-path="url(#_clipPath_O6iEy4vlyo1XqUbWXfN5lcRrdlt5OAic)"><path d=" M 1118.614 591.246 L 1061.521 591.246 C 1061.188 604.586 1061.835 618.486 1063.522 632.512 C 1058.511 627.005 1055.451 619.702 1055.451 611.719 L 1055.451 586.267 C 1056.422 585.557 1057.412 584.861 1058.403 584.181 L 1058.501 584.118 C 1063.532 580.673 1068.817 577.579 1074.328 574.869 L 1074.407 574.831 C 1076.221 573.942 1078.055 573.095 1079.918 572.29 L 1080.065 572.225 C 1081.889 571.44 1083.723 570.697 1085.586 569.996 L 1085.929 569.866 C 1086.547 569.639 1087.155 569.415 1087.773 569.196 L 1088.185 569.05 C 1088.538 568.927 1088.881 568.804 1089.234 568.684 L 1089.548 568.578 C 1090.146 568.375 1090.744 568.177 1091.352 567.982 L 1092.019 567.767 C 1092.519 567.611 1093.009 567.457 1093.51 567.306 L 1094.186 567.102 C 1094.5 567.008 1094.824 566.915 1095.137 566.822 C 1095.569 566.697 1096.01 566.574 1096.442 566.454 C 1096.716 566.378 1096.991 566.304 1097.265 566.229 C 1097.579 566.145 1097.903 566.059 1098.217 565.976 C 1098.57 565.885 1098.913 565.796 1099.266 565.707 C 1099.639 565.612 1100.021 565.517 1100.403 565.425 L 1101.159 565.245 C 1101.639 565.129 1102.129 565.017 1102.61 564.908 L 1103.316 564.754 C 1103.728 564.665 1104.14 564.577 1104.552 564.491 L 1105.248 564.348 C 1105.719 564.252 1106.199 564.158 1106.68 564.067 L 1107.327 563.947 C 1107.856 563.849 1108.386 563.755 1108.915 563.663 L 1109.494 563.567 C 1109.994 563.482 1110.494 563.402 1110.994 563.324 L 1111.347 563.27 C 1111.916 563.184 1112.475 563.103 1113.044 563.025 L 1113.603 562.949 C 1114.172 562.872 1114.75 562.799 1115.329 562.729 L 1115.76 562.679 C 1116.339 562.613 1116.908 562.55 1117.486 562.49 L 1117.682 562.469 C 1117.986 562.438 1118.3 562.409 1118.614 562.38 L 1118.614 562.38 C 1118.3 562.409 1117.986 562.438 1117.682 562.469 L 1118.614 562.383 L 1118.614 591.246 Z  M 1131.941 591.246 L 1118.614 591.246 L 1118.614 562.383 L 1119.536 562.297 C 1119.232 562.324 1118.918 562.352 1118.614 562.38 L 1118.614 562.38 C 1118.918 562.351 1119.232 562.324 1119.536 562.297 L 1119.967 562.26 C 1120.575 562.209 1121.183 562.163 1121.801 562.121 L 1122.193 562.096 C 1122.821 562.054 1123.439 562.016 1124.066 561.985 L 1124.125 561.981 L 1124.145 561.98 C 1124.782 561.948 1125.41 561.922 1126.047 561.9 L 1126.479 561.885 C 1127.096 561.864 1127.724 561.849 1128.352 561.838 L 1128.714 561.833 C 1129.371 561.821 1130.029 561.815 1130.695 561.815 C 1131.107 561.815 1131.519 561.817 1131.941 561.821 C 1131.519 561.817 1131.107 561.815 1130.695 561.815 L 1131.941 561.827 L 1131.941 591.246 Z  M 1202.419 583.792 C 1194.26 588.529 1184.787 591.246 1174.726 591.246 L 1131.941 591.246 L 1131.941 561.827 L 1133.186 561.839 C 1132.765 561.831 1132.353 561.825 1131.941 561.821 C 1132.353 561.825 1132.765 561.831 1133.186 561.839 L 1133.225 561.84 L 1133.284 561.842 C 1134.088 561.857 1134.892 561.881 1135.697 561.912 L 1135.834 561.917 C 1136.628 561.95 1137.403 561.987 1138.187 562.032 L 1138.364 562.043 C 1139.139 562.088 1139.904 562.14 1140.678 562.199 L 1140.865 562.214 C 1141.62 562.274 1142.385 562.341 1143.14 562.413 L 1143.355 562.435 C 1144.091 562.508 1144.836 562.587 1145.572 562.672 L 1145.856 562.706 C 1146.582 562.791 1147.307 562.882 1148.023 562.979 L 1148.298 563.018 C 1149.014 563.117 1149.73 563.22 1150.436 563.33 L 1150.749 563.378 C 1151.446 563.49 1152.152 563.605 1152.848 563.727 L 1153.181 563.786 C 1153.868 563.908 1154.554 564.034 1155.231 564.166 L 1155.604 564.238 C 1156.27 564.371 1156.937 564.508 1157.604 564.65 L 1157.996 564.736 C 1158.653 564.879 1159.31 565.024 1159.958 565.177 L 1160.369 565.275 C 1161.017 565.429 1161.664 565.588 1162.311 565.751 L 1162.723 565.856 C 1163.37 566.023 1164.008 566.195 1164.655 566.371 L 1165.027 566.475 C 1165.665 566.652 1166.302 566.832 1166.93 567.019 L 1167.381 567.154 C 1167.989 567.334 1168.597 567.521 1169.195 567.71 L 1169.695 567.869 C 1170.303 568.063 1170.911 568.26 1171.509 568.463 L 1171.941 568.609 C 1172.549 568.816 1173.157 569.028 1173.765 569.245 L 1174.206 569.403 C 1174.804 569.618 1175.393 569.839 1175.981 570.062 L 1176.452 570.24 C 1177.04 570.463 1177.619 570.693 1178.207 570.924 L 1178.668 571.111 C 1179.247 571.344 1179.815 571.582 1180.394 571.825 L 1180.865 572.025 C 1181.443 572.272 1182.022 572.523 1182.6 572.778 L 1183.032 572.973 C 1183.601 573.228 1184.17 573.488 1184.728 573.75 L 1185.199 573.97 C 1185.758 574.231 1186.307 574.497 1186.856 574.766 L 1187.327 574.996 C 1187.886 575.274 1188.445 575.556 1189.004 575.841 L 1189.426 576.054 C 1189.975 576.342 1190.534 576.636 1191.083 576.932 L 1191.524 577.169 C 1192.073 577.464 1192.613 577.764 1193.162 578.068 L 1193.642 578.342 C 1194.182 578.644 1194.711 578.95 1195.241 579.26 L 1195.702 579.528 C 1196.222 579.837 1196.741 580.151 1197.261 580.468 L 1197.761 580.777 C 1198.261 581.083 1198.752 581.392 1199.252 581.705 L 1199.811 582.063 C 1200.291 582.375 1200.782 582.691 1201.262 583.009 L 1201.762 583.346 C 1201.988 583.493 1202.203 583.643 1202.419 583.792 Z " fill-rule="evenodd" fill="rgb(152,128,67)"/></g><clipPath id="_clipPath_2LId6QYFjBKK5Uz7kP155TcJBtJctAlh"><path d=" M -239 -260 L -239 1963.811 L 1984.811 1963.811 L 1984.811 -260 L -239 -260 Z " fill="rgb(255,255,255)"/></clipPath><g clip-path="url(#_clipPath_2LId6QYFjBKK5Uz7kP155TcJBtJctAlh)"><path d=" M 1045.733 785.556 C 1062.953 800.844 1084.321 811.572 1107.935 815.808 C 1107.337 840.952 1101.639 868.233 1090.077 891.464 C 1114.044 865.723 1130.205 843.119 1140.364 817.465 C 1182.571 814.308 1219.07 790.684 1239.978 756.489 L 1123.664 756.489 C 1093.961 756.489 1066.709 767.463 1045.733 785.556 Z " fill-rule="evenodd" fill="rgb(204,148,66)"/></g><clipPath id="_clipPath_JIGDm6VJyDA6UCEq9RgRTskpKJULaZEn"><path d=" M -239 -260 L -239 1963.811 L 1984.811 1963.811 L 1984.811 -260 L -239 -260 Z " fill="rgb(255,255,255)"/></clipPath><g clip-path="url(#_clipPath_JIGDm6VJyDA6UCEq9RgRTskpKJULaZEn)"><path d=" M 1236.82 761.412 C 1250.627 740.976 1258.698 716.341 1258.698 689.82 C 1258.698 671.675 1254.913 654.417 1248.107 638.779 C 1231.083 656.539 1220.63 680.638 1220.63 707.181 C 1220.63 727.208 1226.582 745.84 1236.82 761.412 Z " fill-rule="evenodd" fill="rgb(207,110,58)"/></g><clipPath id="_clipPath_PsT2kpH86QlYOY7FbFlcFhkFS4QCG99C"><path d=" M -239 -260 L -239 1963.811 L 1984.811 1963.811 L 1984.811 -260 L -239 -260 Z " fill="rgb(255,255,255)"/></clipPath><g clip-path="url(#_clipPath_PsT2kpH86QlYOY7FbFlcFhkFS4QCG99C)"><path d=" M 1047.665 647.93 L 558.262 647.93 C 541.015 647.93 526.902 662.04 526.902 679.289 L 526.902 825.634 C 526.902 842.884 541.015 856.985 558.262 856.985 L 952.484 856.985 C 952.563 879.628 947.738 904.752 937.196 925.934 C 959.427 902.045 973.784 881.334 982.256 856.985 L 1047.665 856.985 C 1064.914 856.985 1079.026 842.884 1079.026 825.634 L 1079.026 679.289 C 1079.026 662.04 1064.914 647.93 1047.665 647.93 Z " fill-rule="evenodd" fill="rgb(192,57,76)"/></g><clipPath id="_clipPath_8p6c4PbddM3lTauVwq510RRdBG8moDxB"><path d=" M -239 -260 L -239 1963.811 L 1984.811 1963.811 L 1984.811 -260 L -239 -260 Z " fill="rgb(255,255,255)"/></clipPath><g clip-path="url(#_clipPath_8p6c4PbddM3lTauVwq510RRdBG8moDxB)"><path d=" M 952.337 864.242 C 951.474 884.894 946.62 906.988 937.196 925.934 C 954.298 907.557 966.733 891.062 975.421 873.352 C 968.145 869.871 960.437 866.821 952.337 864.242 Z  M 857.245 856.985 L 920.751 856.985 C 910.503 855.475 899.883 854.681 888.998 854.681 C 878.113 854.681 867.492 855.475 857.245 856.985 L 857.245 856.985 Z " fill-rule="evenodd" fill="rgb(192,66,57)"/></g><clipPath id="_clipPath_ehCDIH7V1uOy09fclxtGSZ3s0n5YVWX6"><path d=" M -239 -260 L -239 1963.811 L 1984.811 1963.811 L 1984.811 -260 L -239 -260 Z " fill="rgb(255,255,255)"/></clipPath><g clip-path="url(#_clipPath_ehCDIH7V1uOy09fclxtGSZ3s0n5YVWX6)"><path d=" M 526.902 725.06 L 603.295 725.06 C 668.429 725.06 721.72 778.358 721.72 843.492 L 721.72 843.492 C 721.72 848.052 721.449 852.553 720.94 856.985 L 558.262 856.985 C 541.015 856.985 526.902 842.884 526.902 825.634 L 526.902 725.06 Z " fill-rule="evenodd" fill="rgb(145,53,71)"/></g><clipPath id="_clipPath_fR2m4NmiQ2kTRUWFw3QJ2SWKerv2YTUi"><path d=" M -239 -260 L -239 1963.811 L 1984.811 1963.811 L 1984.811 -260 L -239 -260 Z " fill="rgb(255,255,255)"/></clipPath><g clip-path="url(#_clipPath_fR2m4NmiQ2kTRUWFw3QJ2SWKerv2YTUi)"><path d=" M 526.902 707.165 C 555.952 697.842 583.815 682.565 604.602 660.596 C 608.41 656.571 611.947 652.344 615.166 647.93 L 558.262 647.93 C 541.015 647.93 526.902 662.04 526.902 679.289 L 526.902 707.165 Z " fill-rule="evenodd" fill="rgb(147,56,61)"/></g><clipPath id="_clipPath_Xq0Ze6hhg15auzdkyOvHc6wr90VLyEKx"><path d=" M -239 -260 L -239 1963.811 L 1984.811 1963.811 L 1984.811 -260 L -239 -260 Z " fill="rgb(255,255,255)"/></clipPath><g clip-path="url(#_clipPath_Xq0Ze6hhg15auzdkyOvHc6wr90VLyEKx)"><path d=" M 907.483 647.93 L 570.632 647.93 C 599.567 664.908 632.026 676.504 664.116 683.202 C 665.632 683.518 667.152 683.829 668.68 684.126 C 681.932 742.957 710.095 787.683 759.809 841.089 C 736.672 794.597 728.612 737.7 733.052 690.778 C 735.052 690.809 737.057 690.831 739.067 690.831 C 803.172 690.831 861.903 674.703 907.483 647.93 Z " fill-rule="evenodd" fill="rgb(207,110,58)"/></g><clipPath id="_clipPath_aPIwZk0RkHpJh1Y0wfL4ZcITTKFR3LsE"><path d=" M -239 -260 L -239 1963.811 L 1984.811 1963.811 L 1984.811 -260 L -239 -260 Z " fill="rgb(255,255,255)"/></clipPath><g clip-path="url(#_clipPath_aPIwZk0RkHpJh1Y0wfL4ZcITTKFR3LsE)"><path d=" M 1005.595 856.985 L 1047.665 856.985 C 1064.914 856.985 1079.026 842.884 1079.026 825.634 L 1079.026 765.188 C 1040.879 780.662 1012.362 815.298 1005.595 856.985 Z " fill-rule="evenodd" fill="rgb(196,78,60)"/></g><clipPath id="_clipPath_GFqlf7DD5C5ll18jTswPFbEt9D3Adf5L"><path d=" M -239 -260 L -239 1963.811 L 1984.811 1963.811 L 1984.811 -260 L -239 -260 Z " fill="rgb(255,255,255)"/></clipPath><g clip-path="url(#_clipPath_GFqlf7DD5C5ll18jTswPFbEt9D3Adf5L)"><path d=" M 1009.714 647.93 C 1005.164 661.056 1002.693 675.148 1002.693 689.82 C 1002.693 742.123 1034.063 787.095 1079.026 806.963 L 1079.026 679.289 C 1079.026 662.04 1064.914 647.93 1047.665 647.93 L 1009.714 647.93 Z " fill-rule="evenodd" fill="rgb(192,66,57)"/></g><clipPath id="_clipPath_4fl82YRbEXnj3rYrAJ8MnT7u8sHMl2DW"><path d=" M -239 -260 L -239 1963.811 L 1984.811 1963.811 L 1984.811 -260 L -239 -260 Z " fill="rgb(255,255,255)"/></clipPath><g clip-path="url(#_clipPath_4fl82YRbEXnj3rYrAJ8MnT7u8sHMl2DW)"><path d=" M 1046.125 785.899 L 1046.566 786.291 C 1046.998 786.664 1047.429 787.036 1047.861 787.409 L 1048.371 787.831 C 1048.802 788.193 1049.234 788.556 1049.675 788.909 L 1050.116 789.282 C 1050.587 789.655 1051.058 790.037 1051.538 790.41 L 1051.891 790.684 C 1052.362 791.057 1052.833 791.42 1053.313 791.783 L 1053.686 792.067 C 1054.157 792.42 1054.637 792.783 1055.127 793.136 L 1055.49 793.401 C 1055.99 793.763 1056.491 794.126 1057 794.489 L 1057.285 794.685 C 1057.805 795.048 1058.334 795.421 1058.873 795.784 L 1059.138 795.96 C 1059.678 796.333 1060.227 796.696 1060.786 797.058 L 1061.001 797.196 C 1061.59 797.588 1062.188 797.961 1062.796 798.343 L 1062.855 798.382 C 1063.492 798.774 1064.13 799.167 1064.767 799.559 L 1064.787 799.569 C 1069.356 802.315 1074.113 804.786 1079.026 806.963 L 1079.026 765.188 C 1066.807 770.14 1055.579 777.063 1045.733 785.556 C 1045.86 785.663 1045.988 785.781 1046.125 785.899 Z " fill-rule="evenodd" fill="rgb(180,73,56)"/></g><clipPath id="_clipPath_DRhwV9WHmGBtEKH8rqrsJSTFBNaDiXI8"><path d=" M -239 -260 L -239 1963.811 L 1984.811 1963.811 L 1984.811 -260 L -239 -260 Z " fill="rgb(255,255,255)"/></clipPath><g clip-path="url(#_clipPath_DRhwV9WHmGBtEKH8rqrsJSTFBNaDiXI8)"><path d=" M 1567.177 436.199 L 1513.977 436.199 L 1513.977 464.197 C 1514.762 463.915 1515.556 463.629 1516.341 463.339 L 1516.576 463.25 L 1517.292 462.984 L 1517.939 462.742 L 1518.655 462.468 L 1519.243 462.242 L 1519.851 462.006 L 1520.675 461.685 L 1521.116 461.513 L 1521.96 461.178 L 1522.538 460.946 L 1523.274 460.647 L 1523.852 460.413 L 1524.657 460.078 L 1525.137 459.882 L 1525.971 459.529 L 1526.49 459.312 L 1527.353 458.942 L 1527.765 458.764 L 1528.697 458.359 L 1529.099 458.182 C 1529.491 458.011 1529.874 457.839 1530.256 457.667 L 1530.364 457.62 C 1532.6 456.618 1534.816 455.58 1537.013 454.503 L 1537.101 454.459 C 1537.523 454.255 1537.934 454.049 1538.356 453.842 L 1538.376 453.828 C 1538.807 453.618 1539.219 453.406 1539.641 453.192 L 1539.739 453.143 C 1540.151 452.934 1540.563 452.723 1540.974 452.512 L 1541.014 452.489 C 1541.435 452.271 1541.857 452.052 1542.279 451.831 L 1542.328 451.805 C 1542.759 451.581 1543.181 451.355 1543.603 451.127 C 1551.85 446.718 1559.754 441.748 1567.177 436.199 Z " fill-rule="evenodd" fill="rgb(196,155,62)"/></g><clipPath id="_clipPath_rehQgA7ng0JscKyextVVnOLcHIO8WSxB"><path d=" M -239 -260 L -239 1963.811 L 1984.811 1963.811 L 1984.811 -260 L -239 -260 Z " fill="rgb(255,255,255)"/></clipPath><g clip-path="url(#_clipPath_rehQgA7ng0JscKyextVVnOLcHIO8WSxB)"><path d=" M 159.259 478.666 C 147.306 484.048 133.087 487.169 117.828 487.169 C 117.24 487.169 116.653 487.163 116.068 487.153 C 114.768 500.883 117.127 517.53 123.897 531.135 C 117.982 524.781 113.111 518.847 109.15 512.884 L 109.15 461.996 C 110.769 462.078 112.378 462.198 113.975 462.356 L 114.063 462.365 C 115.644 462.523 117.212 462.717 118.769 462.948 L 118.857 462.962 C 119.628 463.077 120.396 463.2 121.161 463.334 L 121.235 463.347 C 121.996 463.48 122.753 463.621 123.508 463.771 L 123.567 463.783 C 124.323 463.934 125.076 464.094 125.826 464.261 L 125.937 464.286 C 126.685 464.455 127.43 464.63 128.17 464.816 L 128.19 464.82 L 128.203 464.824 C 128.943 465.01 129.681 465.204 130.416 465.406 L 130.537 465.439 C 131.266 465.641 131.991 465.85 132.714 466.069 L 132.814 466.099 C 133.513 466.31 134.209 466.53 134.902 466.757 L 135.057 466.808 C 135.752 467.037 136.444 467.273 137.133 467.517 L 137.325 467.586 C 138.004 467.828 138.681 468.077 139.352 468.333 L 139.475 468.379 C 140.139 468.634 140.801 468.896 141.458 469.165 L 141.721 469.272 C 142.37 469.539 143.018 469.813 143.66 470.094 L 143.881 470.191 C 144.5 470.464 145.117 470.742 145.729 471.026 L 145.957 471.133 C 146.585 471.427 147.21 471.726 147.831 472.034 L 148.125 472.179 C 148.717 472.474 149.305 472.774 149.889 473.08 L 150.135 473.209 C 150.726 473.52 151.313 473.836 151.897 474.16 L 152.225 474.342 C 152.819 474.674 153.409 475.009 153.995 475.353 L 154.227 475.49 C 154.785 475.819 155.339 476.152 155.89 476.491 L 156.18 476.67 C 156.747 477.022 157.311 477.378 157.87 477.742 L 158.201 477.96 C 158.555 478.193 158.907 478.43 159.259 478.666 Z " fill-rule="evenodd" fill="rgb(103,85,70)"/></g><clipPath id="_clipPath_dL97G8qqvprUOVOhmyaU4mdcKjoLKRIt"><path d=" M -239 -260 L -239 1963.811 L 1984.811 1963.811 L 1984.811 -260 L -239 -260 Z " fill="rgb(255,255,255)"/></clipPath><g clip-path="url(#_clipPath_dL97G8qqvprUOVOhmyaU4mdcKjoLKRIt)"><path d=" M 602.92 662.34 L 606.332 658.733 L 612.805 651.061 L 615.166 647.93 L 570.637 647.93 C 580.617 653.785 591.016 659 601.675 663.596 C 602.092 663.18 602.507 662.761 602.92 662.34 Z " fill-rule="evenodd" fill="rgb(154,64,57)"/></g></g></svg>