<?xml version="1.0" standalone="no"?><!-- Generator: Gravit.io --><svg xmlns="http://www.w3.org/2000/svg" xmlns:xlink="http://www.w3.org/1999/xlink" style="isolation:isolate" viewBox="201 168.667 96 24" width="96" height="24"><linearGradient id="_lgradient_1" x1="1.8335166850018236%" y1="29.707955689828758%" x2="95.70957095709569%" y2="69.98992950654585%"><stop offset="0%" stop-opacity="1" style="stop-color:rgb(247,115,0)"/><stop offset="100%" stop-opacity="1" style="stop-color:rgb(2,191,147)"/></linearGradient><path d=" M 202 177.867 L 202.66 176.347 L 210 179.767 L 210 181.647 L 202.66 185.067 L 202 183.587 L 208.54 180.707 L 202 177.867 Z  M 212 177.867 L 212.66 176.347 L 220 179.767 L 220 181.647 L 212.66 185.067 L 212 183.587 L 218.54 180.707 L 212 177.867 Z  M 222 177.867 L 222.66 176.347 L 230 179.767 L 230 181.647 L 222.66 185.067 L 222 183.587 L 228.54 180.707 L 222 177.867 Z  M 237.52 185.667 L 238.22 186.887 L 238.22 186.887 Q 237.18 187.607 235.86 187.607 L 235.86 187.607 L 235.86 187.607 Q 234.52 187.607 233.77 186.837 L 233.77 186.837 L 233.77 186.837 Q 233.02 186.067 233.02 184.607 L 233.02 184.607 L 233.02 178.247 L 231.18 178.247 L 231.18 176.827 L 233.02 176.827 L 233.02 174.447 L 234.86 174.227 L 234.86 176.827 L 237.36 176.827 L 237.16 178.247 L 234.86 178.247 L 234.86 184.527 L 234.86 184.527 Q 234.86 185.347 235.15 185.717 L 235.15 185.717 L 235.15 185.717 Q 235.44 186.087 236.12 186.087 L 236.12 186.087 L 236.12 186.087 Q 236.74 186.087 237.52 185.667 L 237.52 185.667 Z  M 248.08 181.787 L 248.08 181.787 Q 248.08 182.247 248.04 182.727 L 248.04 182.727 L 241.32 182.727 L 241.32 182.727 Q 241.44 184.467 242.2 185.287 L 242.2 185.287 L 242.2 185.287 Q 242.96 186.107 244.16 186.107 L 244.16 186.107 L 244.16 186.107 Q 244.92 186.107 245.56 185.887 L 245.56 185.887 L 245.56 185.887 Q 246.2 185.667 246.9 185.187 L 246.9 185.187 L 247.7 186.287 L 247.7 186.287 Q 246.02 187.607 244.02 187.607 L 244.02 187.607 L 244.02 187.607 Q 241.82 187.607 240.59 186.167 L 240.59 186.167 L 240.59 186.167 Q 239.36 184.727 239.36 182.207 L 239.36 182.207 L 239.36 182.207 Q 239.36 180.567 239.89 179.297 L 239.89 179.297 L 239.89 179.297 Q 240.42 178.027 241.41 177.307 L 241.41 177.307 L 241.41 177.307 Q 242.4 176.587 243.74 176.587 L 243.74 176.587 L 243.74 176.587 Q 245.84 176.587 246.96 177.967 L 246.96 177.967 L 246.96 177.967 Q 248.08 179.347 248.08 181.787 L 248.08 181.787 Z  M 246.26 181.367 L 246.26 181.247 L 246.26 181.247 Q 246.26 179.687 245.64 178.867 L 245.64 178.867 L 245.64 178.867 Q 245.02 178.047 243.78 178.047 L 243.78 178.047 L 243.78 178.047 Q 241.52 178.047 241.32 181.367 L 241.32 181.367 L 246.26 181.367 Z  M 258.3 176.827 L 255.06 181.727 L 258.72 187.367 L 256.5 187.367 L 253.92 182.907 L 251.3 187.367 L 249.22 187.367 L 252.9 181.807 L 249.64 176.827 L 251.8 176.827 L 254 180.687 L 256.22 176.827 L 258.3 176.827 Z  M 265.34 185.667 L 266.04 186.887 L 266.04 186.887 Q 265 187.607 263.68 187.607 L 263.68 187.607 L 263.68 187.607 Q 262.34 187.607 261.59 186.837 L 261.59 186.837 L 261.59 186.837 Q 260.84 186.067 260.84 184.607 L 260.84 184.607 L 260.84 178.247 L 259 178.247 L 259 176.827 L 260.84 176.827 L 260.84 174.447 L 262.68 174.227 L 262.68 176.827 L 265.18 176.827 L 264.98 178.247 L 262.68 178.247 L 262.68 184.527 L 262.68 184.527 Q 262.68 185.347 262.97 185.717 L 262.97 185.717 L 262.97 185.717 Q 263.26 186.087 263.94 186.087 L 263.94 186.087 L 263.94 186.087 Q 264.56 186.087 265.34 185.667 L 265.34 185.667 Z  M 275.04 184.907 L 275.04 184.907 Q 275.04 185.547 275.26 185.857 L 275.26 185.857 L 275.26 185.857 Q 275.48 186.167 275.92 186.327 L 275.92 186.327 L 275.5 187.607 L 275.5 187.607 Q 274.68 187.507 274.18 187.147 L 274.18 187.147 L 274.18 187.147 Q 273.68 186.787 273.44 186.027 L 273.44 186.027 L 273.44 186.027 Q 272.38 187.607 270.3 187.607 L 270.3 187.607 L 270.3 187.607 Q 268.74 187.607 267.84 186.727 L 267.84 186.727 L 267.84 186.727 Q 266.94 185.847 266.94 184.427 L 266.94 184.427 L 266.94 184.427 Q 266.94 182.747 268.15 181.847 L 268.15 181.847 L 268.15 181.847 Q 269.36 180.947 271.58 180.947 L 271.58 180.947 L 273.2 180.947 L 273.2 180.167 L 273.2 180.167 Q 273.2 179.047 272.66 178.567 L 272.66 178.567 L 272.66 178.567 Q 272.12 178.087 271 178.087 L 271 178.087 L 271 178.087 Q 269.84 178.087 268.16 178.647 L 268.16 178.647 L 267.7 177.307 L 267.7 177.307 Q 269.66 176.587 271.34 176.587 L 271.34 176.587 L 271.34 176.587 Q 273.2 176.587 274.12 177.497 L 274.12 177.497 L 274.12 177.497 Q 275.04 178.407 275.04 180.087 L 275.04 180.087 L 275.04 184.907 Z  M 270.72 186.227 L 270.72 186.227 Q 272.3 186.227 273.2 184.587 L 273.2 184.587 L 273.2 182.167 L 271.82 182.167 L 271.82 182.167 Q 268.9 182.167 268.9 184.327 L 268.9 184.327 L 268.9 184.327 Q 268.9 185.267 269.36 185.747 L 269.36 185.747 L 269.36 185.747 Q 269.82 186.227 270.72 186.227 L 270.72 186.227 Z  M 283.66 176.587 L 283.66 176.587 Q 285.68 176.587 286.62 178.027 L 286.62 178.027 L 286.62 178.027 Q 287.56 179.467 287.56 182.087 L 287.56 182.087 L 287.56 182.087 Q 287.56 184.567 286.48 186.087 L 286.48 186.087 L 286.48 186.087 Q 285.4 187.607 283.42 187.607 L 283.42 187.607 L 283.42 187.607 Q 281.66 187.607 280.66 186.407 L 280.66 186.407 L 280.66 191.407 L 278.82 191.627 L 278.82 176.827 L 280.4 176.827 L 280.54 178.247 L 280.54 178.247 Q 281.12 177.447 281.94 177.017 L 281.94 177.017 L 281.94 177.017 Q 282.76 176.587 283.66 176.587 L 283.66 176.587 Z  M 282.98 186.107 L 282.98 186.107 Q 285.58 186.107 285.58 182.087 L 285.58 182.087 L 285.58 182.087 Q 285.58 178.047 283.2 178.047 L 283.2 178.047 L 283.2 178.047 Q 282.42 178.047 281.78 178.507 L 281.78 178.507 L 281.78 178.507 Q 281.14 178.967 280.66 179.687 L 280.66 179.687 L 280.66 184.827 L 280.66 184.827 Q 281.06 185.447 281.66 185.777 L 281.66 185.777 L 281.66 185.777 Q 282.26 186.107 282.98 186.107 L 282.98 186.107 Z  M 290.7 176.827 L 292.54 176.827 L 292.54 187.367 L 290.7 187.367 L 290.7 176.827 Z  M 291.6 171.767 L 291.6 171.767 Q 292.18 171.767 292.54 172.127 L 292.54 172.127 L 292.54 172.127 Q 292.9 172.487 292.9 173.027 L 292.9 173.027 L 292.9 173.027 Q 292.9 173.567 292.54 173.917 L 292.54 173.917 L 292.54 173.917 Q 292.18 174.267 291.6 174.267 L 291.6 174.267 L 291.6 174.267 Q 291.04 174.267 290.68 173.917 L 290.68 173.917 L 290.68 173.917 Q 290.32 173.567 290.32 173.027 L 290.32 173.027 L 290.32 173.027 Q 290.32 172.487 290.68 172.127 L 290.68 172.127 L 290.68 172.127 Q 291.04 171.767 291.6 171.767 L 291.6 171.767 Z " fill-rule="evenodd" fill="url(#_lgradient_1)"/></svg>